<svg width="1277" height="516" viewBox="0 0 1277 516" fill="none" xmlns="http://www.w3.org/2000/svg">
<g clip-path="url(#clip0_6662_9077)">
<path d="M814.319 53.6965C814.212 53.7111 814.089 53.7256 813.982 53.7548C812.571 48.1588 808.034 47.1824 808.034 47.1824L809.291 41.4408C793.011 32.2599 773.204 40.6976 773.204 40.6976L774.569 47.3719C771.549 47.9839 769.801 51.394 768.912 53.9734C767.747 46.3081 764.926 28.9373 762.044 21.3303C761.676 20.3393 762.841 19.4795 763.746 20.077C765.677 21.3303 768.314 23.7202 770.966 28.2378C770.966 28.2378 770.276 4.54241 776.332 6.77205C776.332 6.77205 776.96 8.71024 778.968 7.96703C780.961 7.23839 786.235 -0.237501 789.745 0.0539551C793.256 0.330839 798.514 3.94491 799.878 6.58259C801.243 9.22027 804.447 5.50422 804.447 5.50422C804.447 5.50422 806.915 4.2655 807.436 8.84136C807.957 13.4172 808.678 24.9006 808.678 24.9006C808.678 24.9006 815.883 15.9092 819.393 16.871C821.815 17.5413 815.775 43.3644 814.319 53.6965Z" fill="#7A7A7A" stroke="#231F20" stroke-width="1.53298" stroke-miterlimit="10"/>
<path d="M943.533 178.658C937.034 155.502 926.441 137.592 913.885 123.762H913.87C875.637 81.6324 819.04 77.246 803.281 77.2752C803.127 77.4355 802.974 77.5957 802.805 77.7415C802.759 78.2078 802.713 78.6013 802.683 78.7762C800.552 89.1812 790.664 88.7877 790.664 88.7877C781.512 88.4379 778.86 79.8983 778.17 76.4882C777.925 76.2551 777.71 76.0219 777.496 75.7742C770.337 78.9219 715.793 102.88 713.371 105.065C706.841 110.982 710.734 109.671 701.506 112.731C699.16 113.518 696.984 114.684 695.006 116.112C693.504 117.19 691.71 118.458 689.656 119.901C671.229 132.739 631.786 158.635 593.17 181.179H593.154C555.566 203.097 518.774 221.837 502.923 222.216C502.095 222.246 501.313 222.216 500.608 222.129C500.67 222.435 500.777 222.974 500.93 223.732C502.279 230.508 506.663 254.393 507.277 281.44C507.967 311.883 503.919 346.304 485.432 364.913C496.5 358.312 511.554 349.175 528.938 338.274H528.953C565.438 315.395 612.118 284.734 653.569 253.213C702.349 216.11 743.877 177.828 752.907 149.702L777.373 216.037L779.749 215.994L804.4 215.484C805.396 212.132 807.205 209.043 809.765 206.551C816.648 199.876 825.57 197.064 833.71 198.346C843.2 199.818 851.662 206.813 854.712 219.622L866.838 214.216H866.854L867.942 213.72C883.088 186.571 897.881 190.171 907.815 198.608C916.354 205.836 920.815 216.446 920.677 227.302C922.945 225.233 927.069 222.872 932.634 225.495H932.649C932.649 225.495 932.68 225.422 932.695 225.393C934.535 222.056 937.555 219.36 941.311 218.165C943.595 217.436 946.599 216.956 949.987 217.611C949.037 203.213 946.799 190.273 943.533 178.658ZM856.092 166.898L847.4 179.095C851.938 167.335 856.736 157.192 860.231 150.241C861.028 155.954 859.649 161.885 856.092 166.898Z" fill="#F9D555" stroke="#231F20" stroke-width="1.53298" stroke-miterlimit="10"/>
<path d="M500.931 223.732L466.132 249.963L455.064 258.299C435.61 272.959 416.954 288.698 400.643 306.491C398.65 308.677 396.151 310.688 393.959 312.597L356.355 345.313L350.683 350.253C343.585 356.418 340.841 365.905 343.631 374.663L352.446 402.453L373.034 409.973C374.69 408.865 377.081 407.51 379.38 407.058C380.607 406.796 381.818 406.81 382.876 407.248C381.68 409.944 380.821 411.751 380.607 412.261C380.561 412.406 380.53 412.552 380.484 412.698C374.567 434.236 388.778 436.612 388.778 436.612C388.778 436.612 400.306 440.809 409.396 423.249C411.175 419.809 412.861 415.54 414.348 410.25C414.379 410.104 414.425 409.944 414.471 409.783L414.517 409.608C415.022 407.758 415.559 405.965 416.126 404.231C418.717 396.114 421.813 389.323 424.879 383.756C426.734 380.375 428.589 377.475 430.337 374.998C431.042 373.978 431.732 373.031 432.406 372.156C433.495 370.728 434.507 369.504 435.411 368.455C439.734 363.471 443.199 357.86 445.406 351.754C445.498 351.507 445.575 351.259 445.667 351.026C448.227 343.608 451.492 336.482 455.432 329.749C466.791 310.178 483.593 293.857 504.441 282.927L507.277 281.44C506.664 254.393 502.28 230.509 500.931 223.732ZM405.15 420.64L404.736 421.544L401.026 429.544C399.018 433.887 393.806 436.029 389.1 434.426C385.206 433.114 382.768 429.631 382.768 425.901C382.768 424.954 382.922 423.977 383.259 423.03L386.141 414.767L386.371 414.111C386.677 413.266 387.643 412.829 388.517 413.15L404.399 418.95C405.104 419.212 405.441 419.984 405.15 420.64Z" fill="#E78A69" stroke="#231F20" stroke-width="1.53298" stroke-miterlimit="10"/>
<path d="M1033.55 273.484L1030.99 334.267L1030.7 341.189H1013.67C1012.58 341.189 1011.72 342.078 1011.81 343.098L1012.79 354.232C1013.13 358.152 1016.58 361.169 1020.72 361.169H1028.95C1025.96 369.883 1017.53 375.669 1007.14 376.441C1006.56 376.485 1005.97 376.499 1005.41 376.499C997.127 376.499 989.984 372.025 987.822 364.972C979.391 374.197 972.722 383.611 972.722 383.611C970.591 387.137 968.43 390.198 966.192 392.806C949.36 412.64 929.538 407.583 903.784 395.896C902.144 395.152 900.534 394.482 898.955 393.899C872.296 383.756 853.41 392.748 853.41 392.748C810.655 410.075 785.79 386.452 785.79 386.452L737.317 351.449C734.834 349.656 731.706 348.84 728.61 349.161C691.879 353.052 671.445 352.877 659.12 350.006C653.356 348.68 647.944 346.202 643.299 342.705C639.957 340.184 637.397 337.721 635.542 335.316H635.527C617.07 311.548 664.991 293.973 664.991 293.973C664.991 293.973 700.771 283.568 752.601 302.367C762.121 305.821 772.668 306.127 782.157 302.644C782.678 302.455 783.184 302.251 783.675 302.047C781.467 313.093 780.118 321.647 780.348 325.349C780.394 326.106 780.409 326.864 780.317 327.622C780.287 327.87 780.256 328.132 780.241 328.438C778.217 348.927 804.891 360.221 819.408 344.949C822.505 341.699 825.755 337.648 829.051 332.65C830.998 329.72 832.945 326.456 834.892 322.827C835.321 322.026 835.689 321.21 835.995 320.379C839.506 311.213 860.247 255.078 855.388 223.047C855.204 221.867 854.989 220.716 854.713 219.623L866.839 214.216H866.854L867.943 213.721C867.636 214.289 867.314 214.887 866.992 215.484C866.992 215.484 859.665 298.462 850.16 327.491C849.225 330.318 848.75 333.247 848.612 336.22C848.198 345.692 849.133 363.719 862.071 365.468C862.071 365.468 880.069 371.297 900.043 333.247C915.097 304.568 919.543 252.572 920.647 228.527C920.662 228.119 920.677 227.711 920.677 227.303C922.946 225.233 927.07 222.873 932.635 225.496C927.744 234.429 915.143 263.647 915.542 327.637C915.542 327.637 912.721 357.263 930.627 358.516C948.516 359.784 953.161 341.816 957.469 318.499C959.523 307.395 964.873 290.796 968.062 274.169L996.683 254.685C1012.41 243.959 1034.24 255.093 1033.55 273.484Z" fill="#E78A69" stroke="#231F20" stroke-width="1.53298" stroke-miterlimit="10"/>
<path d="M817.875 57.4419C817.584 54.163 815.99 53.4489 814.319 53.6967C814.212 53.7113 814.089 53.7258 813.982 53.755C812.571 48.159 808.034 47.1826 808.034 47.1826L809.291 41.441C793.01 32.2601 773.204 40.6978 773.204 40.6978L774.568 47.3721C771.548 47.9841 769.801 51.3942 768.912 53.9736C766.888 53.2741 764.589 53.4344 764.236 57.4419C763.746 62.8193 768.835 65.4715 771.886 66.5499C772.836 68.9981 774.599 72.6414 777.497 75.7745C777.711 76.0223 777.926 76.2554 778.171 76.4886C781.237 79.5489 785.468 81.9534 791.201 81.9534C796.49 81.9534 800.169 80.2338 802.806 77.7418C802.975 77.5961 803.128 77.4358 803.281 77.2755C806.163 74.3172 807.681 70.4263 808.723 67.0308C811.054 66.4042 818.458 63.8831 817.875 57.4419ZM798.928 47.445C799.694 47.445 800.307 48.0279 800.307 48.7565C800.307 49.4852 799.694 50.0681 798.928 50.0681C798.161 50.0681 797.548 49.4706 797.548 48.7565C797.548 48.0424 798.176 47.445 798.928 47.445ZM783.92 47.445C784.671 47.445 785.284 48.0279 785.284 48.7565C785.284 49.4852 784.671 50.0681 783.92 50.0681C783.169 50.0681 782.54 49.4706 782.54 48.7565C782.54 48.0424 783.153 47.445 783.92 47.445ZM791.201 73.2097C779.566 73.4283 777.083 60.4294 777.083 60.4294C777.083 60.4294 789.484 57.063 804.722 60.0359C803.266 67.162 800.905 73.0203 791.201 73.2097Z" fill="#E78A69" stroke="#231F20" stroke-width="1.53298" stroke-miterlimit="10"/>
<path d="M665.757 524.02L621.055 523.685C624.044 516.355 632.889 511.036 643.36 511.036C653.83 511.036 662.936 516.515 665.757 524.02Z" fill="#DBDADB" stroke="#231F20" stroke-miterlimit="10"/>
<path d="M866.332 525.492L821.508 525.157C823.807 517.069 832.944 511.036 843.874 511.036C854.804 511.036 864.186 517.244 866.332 525.492Z" fill="#DBDADB" stroke="#231F20" stroke-miterlimit="10"/>
<path d="M867.359 214.201L866.854 214.217" stroke="#231F20" stroke-width="1.53298" stroke-miterlimit="10"/>
<path d="M382.875 407.248C385.895 400.5 391.122 388.259 393.867 377.606C396.473 367.595 396.886 358.982 391.245 357.671" stroke="#231F20" stroke-width="1.53298" stroke-miterlimit="10"/>
<path d="M405.149 420.64L404.735 421.544L401.025 429.544C399.017 433.887 393.805 436.029 389.099 434.426C385.205 433.115 382.768 429.632 382.768 425.901C382.768 424.954 382.921 423.978 383.258 423.03L386.14 414.768L386.37 414.112C386.677 413.267 387.642 412.829 388.516 413.15L404.398 418.95C405.103 419.212 405.44 419.985 405.149 420.64Z" fill="#F7D7CD" stroke="#231F20" stroke-width="1.53298" stroke-miterlimit="10"/>
<path d="M503.026 222.143L502.922 222.214" stroke="#231F20" stroke-width="1.53298" stroke-miterlimit="10"/>
<path d="M360.418 382.692C360.418 382.692 385.682 388.04 379.381 407.058" stroke="#231F20" stroke-width="1.53298" stroke-miterlimit="10"/>
<path d="M377.264 373.336C377.264 373.336 386.278 377.417 389.972 376.207" stroke="#231F20" stroke-width="1.53298" stroke-miterlimit="10"/>
<path d="M393.867 377.607C392.487 377.432 391.169 376.907 389.973 376.208C386.309 374.08 383.719 370.408 383.719 370.408" stroke="#231F20" stroke-width="1.53298" stroke-miterlimit="10"/>
<path d="M419.252 405.338L416.125 404.231C418.716 396.114 421.812 389.323 424.878 383.756C427.04 387.865 428.343 395.633 419.252 405.338Z" fill="#E78A69" stroke="#231F20" stroke-width="1.53298" stroke-miterlimit="10"/>
<path d="M416.124 404.232H416.109" stroke="#231F20" stroke-width="1.53298" stroke-miterlimit="10"/>
<path d="M382.875 407.248C381.679 409.944 380.821 411.751 380.606 412.261C380.56 412.406 380.529 412.552 380.483 412.698L373.033 409.973C374.689 408.865 377.08 407.51 379.38 407.058C380.606 406.796 381.817 406.811 382.875 407.248Z" fill="#E78A69" stroke="#231F20" stroke-width="1.53298" stroke-miterlimit="10"/>
<path d="M804.4 215.484C804.308 215.746 804.232 216.009 804.17 216.271C800.031 232.316 794.252 255.137 789.408 275.932L779.75 215.994L804.4 215.484Z" fill="#496BB3" stroke="#231F20" stroke-width="1.53298" stroke-miterlimit="10"/>
<path d="M843.98 125.482L854.773 138.131C857.823 141.702 859.648 145.899 860.23 150.241" stroke="#231F20" stroke-width="1.53298" stroke-miterlimit="10"/>
<path d="M847.4 179.095C847.4 179.095 847.4 179.11 847.385 179.124L833.711 198.346" stroke="#231F20" stroke-width="1.53298" stroke-miterlimit="10"/>
<path d="M855.387 223.047C855.203 221.867 854.988 220.716 854.712 219.623C851.662 206.813 843.199 199.818 833.71 198.346C825.57 197.064 816.648 199.876 809.765 206.551C807.205 209.043 805.396 212.132 804.4 215.484C804.308 215.746 804.231 216.009 804.17 216.271C800.031 232.316 794.251 255.137 789.407 275.932V275.961C787.23 285.346 785.237 294.308 783.674 302.046C781.466 313.093 780.117 321.647 780.347 325.348C780.393 326.106 780.408 326.864 780.316 327.622C780.286 327.869 780.255 328.132 780.24 328.438C778.216 348.927 804.89 360.221 819.407 344.949C822.504 341.699 825.754 337.648 829.05 332.649C830.997 329.72 832.944 326.456 834.891 322.827C835.32 322.026 835.688 321.21 835.994 320.379C839.505 311.213 860.246 255.078 855.387 223.047ZM821.201 320.467L816.663 332.125C815.1 336.176 810.838 338.683 806.331 338.231L800.352 337.633C795.033 337.094 791.124 332.635 791.507 327.563L792.412 316.095C792.504 314.943 793.592 314.113 794.803 314.288L819.561 317.814C820.864 318.004 821.661 319.286 821.201 320.467Z" fill="#E78A69" stroke="#231F20" stroke-width="1.53298" stroke-miterlimit="10"/>
<path d="M907.814 198.609C897.881 190.171 883.087 186.571 867.942 213.721C867.635 214.289 867.313 214.886 866.991 215.484C866.991 215.484 859.663 298.462 850.159 327.491C849.224 330.318 848.749 333.247 848.611 336.22C848.197 345.692 849.132 363.719 862.07 365.467C862.07 365.467 880.067 371.296 900.042 333.247C915.096 304.568 919.542 252.572 920.646 228.527C920.661 228.119 920.676 227.711 920.676 227.302C920.814 216.446 916.353 205.837 907.814 198.609ZM885.555 340.271L882.045 348.709C880.665 352.046 877.093 354.086 873.338 353.663L864.032 352.629C859.832 352.162 856.674 348.781 856.674 344.774V336.176C856.674 334.486 857.839 333.101 859.403 332.591H859.418C859.97 332.416 860.568 332.358 861.196 332.431L882.382 335.112C884.942 335.447 886.506 337.983 885.555 340.271Z" fill="#E78A69" stroke="#231F20" stroke-width="1.53298" stroke-miterlimit="10"/>
<path d="M970.437 247.515C970.422 247.063 970.391 246.612 970.345 246.174C970.299 245.592 970.253 245.023 970.176 244.455V244.382C970.115 243.901 970.054 243.42 969.992 242.939C969.885 242.225 969.778 241.526 969.64 240.826C969.578 240.491 969.517 240.156 969.441 239.835C969.303 239.136 969.134 238.436 968.95 237.766C968.843 237.343 968.72 236.921 968.597 236.513C968.137 234.982 967.57 233.511 966.926 232.112C966.743 231.718 966.543 231.325 966.329 230.931C966.16 230.582 965.976 230.246 965.777 229.926C965.669 229.736 965.577 229.561 965.455 229.401C965.286 229.11 965.102 228.818 964.918 228.541L964.888 228.512C964.673 228.177 964.443 227.842 964.198 227.507C963.952 227.171 963.692 226.836 963.431 226.516C959.078 221.182 954.663 218.69 950.707 217.757C950.462 217.699 950.232 217.655 949.987 217.612C946.599 216.956 943.594 217.437 941.31 218.165C937.554 219.36 934.534 222.056 932.695 225.394C932.68 225.423 932.664 225.466 932.649 225.496H932.634C927.743 234.429 915.142 263.647 915.541 327.636C915.541 327.636 912.72 357.263 930.625 358.516C948.515 359.784 953.16 341.816 957.468 318.499C959.522 307.395 964.872 290.796 968.061 274.169C969.548 266.474 970.56 258.751 970.56 251.596C970.56 250.211 970.529 248.856 970.437 247.515ZM946.43 337.021L943.349 344.279C941.923 347.616 938.505 349.802 934.718 349.802H931.637C927.1 349.802 923.221 346.683 922.455 342.428L921.182 335.244C920.922 333.786 922.163 332.489 923.712 332.577L927.146 332.795H927.268L944.361 333.888C945.986 333.99 947.044 335.579 946.43 337.021Z" fill="#E78A69" stroke="#231F20" stroke-width="1.53298" stroke-miterlimit="10"/>
<path d="M987.823 364.972C987.378 363.544 987.148 362.014 987.148 360.396L987.194 299.598" stroke="#231F20" stroke-width="1.53298" stroke-miterlimit="10"/>
<path d="M821.202 320.467L816.665 332.125C815.101 336.176 810.839 338.683 806.332 338.231L800.354 337.633C795.034 337.094 791.125 332.635 791.508 327.564L792.413 316.095C792.505 314.944 793.593 314.113 794.804 314.288L819.562 317.814C820.865 318.004 821.662 319.286 821.202 320.467Z" fill="#F7D7CD" stroke="#231F20" stroke-width="1.53298" stroke-miterlimit="10"/>
<path d="M885.555 340.271L882.045 348.709C880.665 352.046 877.093 354.086 873.337 353.663L864.032 352.629C859.832 352.162 856.674 348.782 856.674 344.774V336.176C856.674 334.486 857.839 333.101 859.403 332.591H859.418C859.97 332.416 860.568 332.358 861.196 332.431L882.382 335.112C884.942 335.447 886.506 337.983 885.555 340.271Z" fill="#F7D7CD" stroke="#231F20" stroke-width="1.53298" stroke-miterlimit="10"/>
<path d="M946.431 337.022L943.35 344.279C941.924 347.616 938.506 349.802 934.719 349.802H931.638C927.1 349.802 923.222 346.683 922.456 342.428L921.183 335.244C920.923 333.786 922.164 332.489 923.713 332.577L927.146 332.795H927.269L944.362 333.888C945.987 333.99 947.045 335.579 946.431 337.022Z" fill="#F7D7CD" stroke="#231F20" stroke-width="1.53298" stroke-miterlimit="10"/>
<path d="M847.385 179.136C847.385 179.136 847.399 179.109 847.399 179.095" stroke="#231F20" stroke-width="1.53298" stroke-miterlimit="10"/>
<path d="M500.93 223.732L466.131 249.963C480.004 226.122 500.531 221.808 500.531 221.808C500.531 221.808 500.531 221.838 500.546 221.881C500.562 221.94 500.577 222.012 500.608 222.129C500.669 222.435 500.776 222.974 500.93 223.732Z" fill="#231F20" stroke="#231F20" stroke-width="1.53298" stroke-miterlimit="10"/>
<path d="M160.777 202.296L159.136 278.06L157.404 357.482C93.8925 362.247 37.3253 367.478 -9.3847 373.045C-18.8432 362.64 -27.1367 352.847 -34.2344 344.016V218.224C-30.8005 217.787 -27.3053 217.349 -23.7181 216.912L-11.2549 255.224C49.3593 227.186 153.756 233.54 153.756 233.54L155.656 202.645C157.358 202.529 159.075 202.412 160.777 202.296Z" fill="white"/>
<path d="M1382.27 160.151C1377.58 173.762 1372.4 187.052 1366.79 200.037C1258.58 187.067 1107.98 180.48 943.534 178.658C937.034 155.502 926.441 137.592 913.886 123.763H913.871C875.638 81.6325 819.04 77.2461 803.281 77.2752C806.163 74.317 807.681 70.426 808.723 67.0305C811.053 66.4039 818.458 63.8828 817.875 57.4416C817.584 54.1627 815.99 53.4486 814.319 53.6964C815.775 43.3643 821.815 17.5412 819.393 16.8709C815.882 15.9091 808.677 24.9005 808.677 24.9005C808.677 24.9005 807.957 13.4171 807.435 8.84126C806.914 4.2654 804.446 5.50412 804.446 5.50412C804.446 5.50412 801.242 9.22017 799.878 6.5825C798.514 3.94482 793.255 0.330742 789.745 0.0538584C786.234 -0.237598 780.961 7.23829 778.968 7.96693C776.96 8.71014 776.331 6.77195 776.331 6.77195C770.276 4.54231 770.966 28.2377 770.966 28.2377C768.314 23.7201 765.677 21.3302 763.745 20.0769C762.841 19.4795 761.676 20.3392 762.044 21.3302C764.926 28.9372 767.746 46.308 768.912 53.9733C766.888 53.2738 764.589 53.4341 764.236 57.4416C763.745 62.819 768.835 65.4712 771.886 66.5496C772.836 68.9979 774.599 72.6411 777.496 75.7742C770.337 78.922 715.794 102.88 713.372 105.066C706.841 110.982 710.735 109.671 701.506 112.731C699.161 113.518 696.984 114.684 695.006 116.112C693.504 117.19 691.71 118.458 689.656 119.901C671.23 132.739 631.786 158.635 593.17 181.179H593.155C510.19 183.132 428.604 185.959 351.71 189.471C351.71 189.471 317.018 191.745 269.205 194.951L270.308 190.113C270.308 190.113 270.262 190.04 270.155 189.981L271.32 184.225C226.235 166.752 182.438 172.465 182.438 172.465L179.908 180.655H179.893C179.203 180.975 178.621 181.325 178.161 181.719L178.069 186.557L177.793 201.13C176.781 201.202 175.769 201.275 174.757 201.334L174.512 175.001L161.39 174.301L160.777 202.295C159.075 202.412 157.358 202.529 155.656 202.645L157.205 177.303L151.563 167.496C132.294 166.344 45.7721 162.861 -23.0896 187.883L-29.3442 199.585L-29.0835 200.372L-23.7181 216.912C-27.3053 217.349 -30.8005 217.786 -34.2344 218.223V-72.679C-33.5752 -73.9177 -32.916 -75.1564 -32.2262 -76.4243C-31.7509 -77.3132 -31.2604 -78.2167 -30.7698 -79.1348C-30.3713 -79.8635 -29.9727 -80.5921 -29.5588 -81.3353C-28.7923 -82.7489 -27.9951 -84.177 -27.198 -85.6051C-25.3124 -88.9714 -23.3655 -92.4106 -21.3266 -95.9227C-20.9741 -96.5493 -20.6061 -97.1759 -20.2229 -97.8171C-19.855 -98.4438 -19.4717 -99.0996 -19.1038 -99.7408C-18.1687 -101.329 -17.2182 -102.932 -16.2371 -104.55C-15.2714 -106.167 -14.2902 -107.8 -13.2938 -109.446C-12.7879 -110.277 -12.282 -111.093 -11.7762 -111.924C-11.1016 -113.017 -10.4271 -114.11 -9.73728 -115.217C-7.49912 -118.831 -5.16899 -122.503 -2.7622 -126.249C-2.05703 -127.356 -1.33652 -128.464 -0.600692 -129.586C1.71412 -133.142 4.10557 -136.741 6.57368 -140.399C7.3555 -141.536 8.12199 -142.687 8.91914 -143.838C9.70096 -144.989 10.4981 -146.141 11.2953 -147.306C11.9698 -148.297 12.6596 -149.288 13.3495 -150.279C14.8518 -152.421 16.3694 -154.593 17.9331 -156.793C19.2515 -158.644 20.5852 -160.495 21.9342 -162.36C23.0073 -163.847 24.0957 -165.333 25.1841 -166.819C25.9506 -167.869 26.7171 -168.903 27.4989 -169.953C28.1734 -170.871 28.8786 -171.803 29.5838 -172.751C30.059 -173.392 30.5342 -174.033 31.0248 -174.674C32.2205 -176.248 33.4162 -177.836 34.6273 -179.425C34.6273 -179.439 34.6426 -179.439 34.6426 -179.439C36.2523 -181.567 37.9079 -183.695 39.5788 -185.837C40.9125 -187.557 42.2769 -189.305 43.6566 -191.054C44.837 -192.54 46.0327 -194.041 47.2438 -195.542C48.1176 -196.635 48.9914 -197.728 49.8805 -198.807C50.7543 -199.9 51.6434 -200.993 52.5479 -202.086C52.7472 -202.348 52.9618 -202.596 53.1611 -202.843C54.7554 -204.782 56.365 -206.72 57.99 -208.673C58.8944 -209.766 59.8296 -210.873 60.7647 -211.981C62.1597 -213.642 63.57 -215.303 64.9957 -216.964C66.4214 -218.626 67.8624 -220.302 69.3187 -221.963C70.2845 -223.085 71.2656 -224.207 72.2467 -225.315C84.0201 -238.736 96.7132 -252.376 110.387 -266.133C110.648 -266.395 110.909 -266.658 111.169 -266.92C112.764 -268.509 114.358 -270.112 115.967 -271.7C119.601 -275.299 123.295 -278.899 127.082 -282.513C128.569 -283.941 130.071 -285.369 131.589 -286.797C136.126 -291.082 140.756 -295.381 145.493 -299.665C147.24 -301.254 149.003 -302.842 150.782 -304.431C153.188 -306.587 155.641 -308.759 158.109 -310.915C159.228 -311.877 160.347 -312.854 161.466 -313.83C163.858 -315.914 166.295 -318.012 168.763 -320.096C170.603 -321.656 172.458 -323.229 174.328 -324.789C181.411 -330.72 188.692 -336.651 196.173 -342.538C198.549 -344.418 200.956 -346.298 203.378 -348.178C204.712 -349.213 206.061 -350.247 207.41 -351.282C209.434 -352.841 211.472 -354.386 213.527 -355.931C215.535 -357.446 217.574 -358.977 219.613 -360.492C219.643 -360.521 219.689 -360.55 219.72 -360.58C221.728 -362.066 223.752 -363.552 225.79 -365.039C227.891 -366.584 230.022 -368.128 232.152 -369.658C238.56 -374.278 245.106 -378.883 251.79 -383.444C253.829 -384.829 255.868 -386.213 257.907 -387.598C261.34 -389.915 264.82 -392.232 268.331 -394.534C270.078 -395.685 271.841 -396.837 273.62 -397.988C291.739 -409.748 310.764 -421.304 330.754 -432.569C332.992 -433.837 335.23 -435.09 337.484 -436.344C340.381 -437.961 343.309 -439.564 346.252 -441.167H1080.34C1082.38 -439.987 1084.4 -438.777 1086.45 -437.553C1088.51 -436.344 1090.56 -435.105 1092.63 -433.852C1095.39 -432.19 1098.15 -430.5 1100.94 -428.78C1112.07 -421.902 1123.43 -414.572 1134.94 -406.79C1136.38 -405.814 1137.82 -404.837 1139.27 -403.846C1140.71 -402.855 1142.15 -401.864 1143.6 -400.859C1145.06 -399.853 1146.5 -398.848 1147.96 -397.828C1148.33 -397.565 1148.71 -397.303 1149.09 -397.041C1149.44 -396.778 1149.81 -396.531 1150.16 -396.298L1150.23 -396.254L1150.33 -396.166C1152.91 -394.345 1155.48 -392.509 1158.08 -390.643C1159.36 -389.711 1160.67 -388.778 1161.95 -387.831C1165.33 -385.383 1168.71 -382.891 1172.1 -380.34C1173.8 -379.072 1175.49 -377.805 1177.19 -376.508C1180.5 -374.001 1183.83 -371.451 1187.17 -368.842C1188.9 -367.487 1190.62 -366.132 1192.35 -364.762L1195.89 -361.964C1198.18 -360.128 1200.48 -358.292 1202.76 -356.426C1204.59 -354.94 1206.43 -353.439 1208.25 -351.923C1213.74 -347.377 1219.24 -342.728 1224.73 -337.963C1227.24 -335.777 1229.76 -333.576 1232.27 -331.347C1235.02 -328.927 1237.74 -326.465 1240.49 -323.973C1241.79 -322.792 1243.09 -321.597 1244.4 -320.402C1247 -318.012 1249.59 -315.593 1252.2 -313.145C1253.49 -311.921 1254.79 -310.682 1256.09 -309.444C1257.4 -308.205 1258.68 -306.966 1259.99 -305.713C1265.18 -300.7 1270.37 -295.585 1275.52 -290.368C1275.58 -290.309 1275.64 -290.251 1275.69 -290.193C1276.88 -288.983 1278.08 -287.774 1279.26 -286.55C1281.25 -284.509 1283.24 -282.455 1285.21 -280.385C1286.75 -278.782 1288.29 -277.165 1289.82 -275.533C1290.59 -274.731 1291.35 -273.915 1292.12 -273.084C1292.89 -272.268 1293.65 -271.452 1294.4 -270.622C1295.15 -269.82 1295.89 -269.019 1296.64 -268.202C1297.39 -267.386 1298.14 -266.585 1298.88 -265.769C1300.37 -264.137 1301.84 -262.505 1303.33 -260.858C1304.8 -259.24 1306.25 -257.593 1307.71 -255.947C1309.66 -253.761 1311.59 -251.546 1313.52 -249.316C1314.56 -248.121 1315.59 -246.926 1316.62 -245.717C1318.41 -243.633 1320.2 -241.52 1321.98 -239.407C1323.7 -237.366 1325.42 -235.312 1327.12 -233.242C1327.93 -232.266 1328.74 -231.275 1329.54 -230.299C1330.35 -229.308 1331.16 -228.317 1331.96 -227.326C1333.13 -225.883 1334.29 -224.426 1335.46 -222.968C1336.62 -221.511 1337.79 -220.054 1338.94 -218.597C1339.18 -218.291 1339.41 -217.999 1339.64 -217.693C1340.58 -216.513 1341.51 -215.332 1342.43 -214.137C1343.44 -212.84 1344.46 -211.529 1345.47 -210.203C1346.31 -209.124 1347.14 -208.031 1347.97 -206.938C1349.39 -205.073 1350.8 -203.193 1352.2 -201.313C1352.9 -200.381 1353.59 -199.448 1354.28 -198.515C1354.99 -197.583 1355.68 -196.635 1356.37 -195.688C1359.16 -191.899 1361.92 -188.067 1364.66 -184.205C1366.13 -182.106 1367.6 -180.008 1369.08 -177.895C1371.88 -173.873 1374.66 -169.807 1377.4 -165.683C1378.81 -163.584 1380.22 -161.457 1381.61 -159.329C1381.61 -159.314 1381.63 -159.314 1381.63 -159.3L1382.12 81.6762L1382.27 160.151Z" fill="#0E0E0E"/>
<path d="M774.094 67.2057C774.094 67.2057 773.174 67.0163 771.887 66.5499" stroke="#231F20" stroke-width="1.53298" stroke-miterlimit="10"/>
<path d="M768.912 53.9739C770.644 54.5568 772.177 55.7663 772.177 55.7663" stroke="#231F20" stroke-width="1.53298" stroke-miterlimit="10"/>
<path d="M766.965 56.9318C766.965 56.9318 770.966 58.3745 770.675 62.4986" stroke="#231F20" stroke-width="0.766492" stroke-linecap="round" stroke-linejoin="round"/>
<path d="M767.748 61.9306C767.748 61.9306 768.239 57.617 770.185 57.7628" stroke="#231F20" stroke-width="0.766492" stroke-linecap="round" stroke-linejoin="round"/>
<path d="M808.722 67.0309C808.293 67.1473 808.033 67.2055 808.033 67.2055" stroke="#231F20" stroke-width="1.53298" stroke-miterlimit="10"/>
<path d="M809.934 55.7661C809.934 55.7661 811.957 54.1776 813.981 53.755" stroke="#231F20" stroke-width="1.53298" stroke-miterlimit="10"/>
<path d="M815.145 56.9314C815.145 56.9314 811.144 58.3741 811.435 62.4982" stroke="#231F20" stroke-width="0.766492" stroke-linecap="round" stroke-linejoin="round"/>
<path d="M814.365 61.9302C814.365 61.9302 813.875 57.6167 811.928 57.7624" stroke="#231F20" stroke-width="0.766492" stroke-linecap="round" stroke-linejoin="round"/>
<path d="M814.118 57.7463C814.118 57.7463 814.057 57.6014 814.057 57.4855" stroke="#231F20" stroke-width="1.53298" stroke-miterlimit="10"/>
<path d="M778.279 44.3118C778.279 44.3118 783.553 41.3389 787.155 42.5484" stroke="#231F20" stroke-width="1.53298" stroke-miterlimit="10"/>
<path d="M803.88 44.3118C803.88 44.3118 798.606 41.3389 795.004 42.5484" stroke="#231F20" stroke-width="1.53298" stroke-miterlimit="10"/>
<path d="M785.283 48.7564C785.283 49.4704 784.67 50.0679 783.919 50.0679C783.168 50.0679 782.539 49.4704 782.539 48.7564C782.539 48.0423 783.152 47.4448 783.919 47.4448C784.685 47.4448 785.283 48.0277 785.283 48.7564Z" stroke="#231F20" stroke-width="1.53298" stroke-miterlimit="10"/>
<path d="M800.306 48.7564C800.306 49.4704 799.693 50.0679 798.927 50.0679C798.16 50.0679 797.547 49.4704 797.547 48.7564C797.547 48.0423 798.175 47.4448 798.927 47.4448C799.678 47.4448 800.306 48.0277 800.306 48.7564Z" stroke="#231F20" stroke-width="1.53298" stroke-miterlimit="10"/>
<path d="M787.889 53.0841C787.889 53.0841 791.108 57.8057 794.527 53.0841" stroke="#231F20" stroke-width="1.53298" stroke-miterlimit="10"/>
<path d="M804.722 60.0356C803.265 67.1617 800.905 73.02 791.201 73.2095C779.565 73.4281 777.082 60.4291 777.082 60.4291C777.082 60.4291 789.484 57.0628 804.722 60.0356Z" fill="white" stroke="#231F20" stroke-width="1.53298" stroke-miterlimit="10"/>
<path d="M804.768 59.8462C804.768 59.8462 804.738 59.9766 804.723 60.0346C804.799 60.049 804.89 60.0635 804.966 60.078" stroke="#231F20" stroke-width="1.53298" stroke-miterlimit="10"/>
<path d="M1366.79 200.037C1356.81 223.12 1345.5 245.198 1333.25 266.197C1333.25 266.197 1333.25 266.212 1333.23 266.212C1316.62 294.76 1298.25 321.326 1279.16 345.809C1206.64 339.965 1122.08 336.234 1030.99 334.267L1033.55 273.484C1034.24 255.093 1012.41 243.959 996.682 254.685L968.061 274.169C969.548 266.474 970.56 258.751 970.56 251.595C970.56 250.211 970.529 248.856 970.437 247.515C970.422 247.063 970.391 246.612 970.345 246.174C970.299 245.591 970.253 245.023 970.176 244.455V244.382C970.115 243.901 970.054 243.42 969.993 242.939C969.885 242.225 969.778 241.526 969.64 240.826C969.579 240.491 969.517 240.156 969.441 239.835C969.303 239.136 969.134 238.436 968.95 237.766C968.843 237.343 968.72 236.921 968.597 236.513C968.138 234.982 967.57 233.511 966.927 232.112C966.743 231.718 966.543 231.31 966.329 230.931C966.16 230.581 965.976 230.246 965.777 229.926C965.67 229.736 965.577 229.561 965.455 229.401C965.302 229.11 965.118 228.818 964.918 228.541L964.888 228.512C964.673 228.177 964.443 227.842 964.198 227.507C963.953 227.171 963.692 226.836 963.431 226.516C959.078 221.182 954.663 218.69 950.708 217.757C950.462 217.699 950.232 217.655 949.987 217.612C949.037 203.214 946.798 190.273 943.533 178.658C1107.98 180.48 1258.58 187.067 1366.79 200.037Z" fill="white"/>
<path d="M1030.7 341.189L1030.12 354.946C1030.02 357.146 1029.62 359.23 1028.95 361.168H1020.72C1016.58 361.168 1013.13 358.152 1012.79 354.232L1011.81 343.098C1011.72 342.078 1012.58 341.189 1013.67 341.189H1030.7Z" fill="#F7D7CD" stroke="#231F20" stroke-width="1.53298" stroke-miterlimit="10"/>
<path d="M1279.17 345.808C1206.36 439.337 1123.28 502.335 1086.7 527.735L1057.2 527.488L1056.84 526.905L979.743 405.149C976.386 399.859 971.679 395.647 966.191 392.806C968.43 390.197 970.591 387.137 972.722 383.61C972.722 383.61 979.39 374.196 987.822 364.972C989.983 372.025 997.127 376.499 1005.41 376.499C1005.97 376.499 1006.55 376.484 1007.14 376.44C1017.53 375.668 1025.96 369.883 1028.95 361.168C1029.63 359.23 1030.02 357.146 1030.12 354.946L1030.7 341.189L1030.99 334.267C1122.08 336.234 1206.64 339.965 1279.17 345.808Z" fill="#0E0E0E"/>
<path d="M802.805 77.7415C802.759 78.2079 802.713 78.6014 802.682 78.7762C800.551 89.1812 790.664 88.7877 790.664 88.7877C781.512 88.438 778.86 79.8983 778.17 76.4883C781.236 79.5486 785.467 81.9531 791.2 81.9531C796.489 81.9531 800.168 80.2335 802.805 77.7415Z" fill="#E78A69" stroke="#231F20" stroke-width="1.53298" stroke-miterlimit="10"/>
<path d="M485.432 364.913L485.401 364.942C480.082 370.305 473.567 374.342 465.611 376.586H465.595C460.49 359.099 457.225 343.55 455.432 329.749C466.791 310.178 483.593 293.856 504.441 282.927L507.277 281.44C507.967 311.883 503.92 346.304 485.432 364.913Z" fill="#231F20" stroke="#231F20" stroke-width="1.53298" stroke-miterlimit="10"/>
<path d="M979.742 405.149C976.385 399.859 971.678 395.648 966.19 392.806C949.358 412.64 929.537 407.583 903.783 395.896C902.142 395.152 900.533 394.482 898.954 393.899C696.308 414.039 592.019 396.872 536.939 387.881C521.15 385.301 505.391 392.515 497.634 405.849L431.332 522.286L621.054 523.685C624.043 516.355 632.889 511.035 643.359 511.035C653.829 511.035 662.935 516.515 665.756 524.02L693.488 524.224C697.565 520.362 703.759 517.899 710.703 517.899C717.648 517.899 724.117 520.464 728.179 524.472H728.194L759.452 524.705C763.514 520.566 769.83 517.899 776.943 517.899C784.056 517.899 790.648 520.668 794.711 524.967L821.507 525.156C823.807 517.069 832.943 511.035 843.873 511.035C854.804 511.035 864.186 517.243 866.332 525.492L1056.84 526.905L979.742 405.149ZM525.718 516.107C505.084 516.107 488.359 503.166 488.359 487.223C488.359 471.281 505.084 458.34 525.718 458.34C546.352 458.34 563.061 471.266 563.061 487.223C563.061 503.181 546.336 516.107 525.718 516.107ZM602.321 455.469C601.294 455.469 600.252 455.396 599.194 455.236L528.324 444.787C519.571 443.461 513.868 435.315 515.953 427.125C518.865 415.598 529.704 407.831 541.692 407.831C543.623 407.831 545.585 408.035 547.548 408.457C564.165 412.013 585.244 415.817 603.885 417.259C615.106 418.134 623.415 427.562 622.311 438.215C621.284 448.139 612.485 455.469 602.321 455.469ZM641.55 506.416C628.642 506.416 618.187 498.328 618.187 488.36C618.187 478.392 628.642 470.304 641.55 470.304C654.458 470.304 664.898 478.378 664.898 488.36C664.898 498.342 654.443 506.416 641.55 506.416ZM708.909 511.531C696.63 511.531 686.681 503.836 686.681 494.335C686.681 484.833 696.63 477.154 708.909 477.154C721.189 477.154 731.122 484.848 731.122 494.335C731.122 503.822 721.173 511.531 708.909 511.531ZM651.699 459.462C643.114 458.879 636.691 451.724 637.457 443.578L637.595 442.062C638.592 431.512 648.265 423.657 659.379 424.385C694.116 426.644 767.791 429.981 829.111 422.782C842.831 421.165 855.493 430.011 858.146 442.907C858.314 443.767 858.406 444.612 858.406 445.458C858.406 452.03 853.225 457.801 846.081 458.602C818.886 461.619 754.286 466.37 651.699 459.462ZM775.134 512.668C762.855 512.668 752.906 504.711 752.906 494.918C752.906 485.125 762.855 477.154 775.134 477.154C787.414 477.154 797.378 485.11 797.378 494.918C797.378 504.725 787.414 512.668 775.134 512.668ZM842.065 506.489C829.417 506.489 819.146 498.386 819.146 488.389C819.146 478.392 829.417 470.304 842.065 470.304C854.712 470.304 864.983 478.392 864.983 488.389C864.983 498.386 854.727 506.489 842.065 506.489ZM889.526 452.919C879.071 452.919 870.164 445.181 869.474 435.009C868.754 424.313 877.385 415.175 888.637 414.665C907.324 413.82 928.525 410.716 945.265 407.7C946.936 407.394 948.592 407.248 950.232 407.248C962.588 407.248 973.595 415.481 976.17 427.387C977.948 435.65 971.954 443.592 963.155 444.627L891.963 452.773C891.151 452.861 890.338 452.919 889.526 452.919ZM961.07 518.118C940.452 518.118 923.727 504.798 923.727 488.36C923.727 471.922 940.452 458.588 961.07 458.588C981.689 458.588 998.429 471.922 998.429 488.36C998.429 504.798 981.704 518.118 961.07 518.118Z" fill="#7F7370" stroke="#231F20" stroke-miterlimit="10"/>
<path d="M998.429 488.36C998.429 504.798 981.704 518.118 961.07 518.118C940.436 518.118 923.727 504.798 923.727 488.36C923.727 471.922 940.451 458.588 961.07 458.588C981.689 458.588 998.429 471.922 998.429 488.36Z" fill="#DBDADB" stroke="#231F20" stroke-miterlimit="10"/>
<path d="M864.836 488.085C864.836 498.082 854.581 506.184 841.918 506.184C829.256 506.184 819 498.082 819 488.085C819 478.088 829.271 470 841.918 470C854.565 470 864.836 478.088 864.836 488.085Z" fill="#DBDADB" stroke="#231F20" stroke-miterlimit="10"/>
<path d="M797.378 494.918C797.378 504.711 787.414 512.668 775.135 512.668C762.855 512.668 752.906 504.711 752.906 494.918C752.906 485.125 762.855 477.154 775.135 477.154C787.414 477.154 797.378 485.11 797.378 494.918Z" fill="#DBDADB" stroke="#231F20" stroke-miterlimit="10"/>
<path d="M731.123 494.335C731.123 503.836 721.174 511.531 708.91 511.531C696.646 511.531 686.682 503.836 686.682 494.335C686.682 484.833 696.631 477.154 708.91 477.154C721.189 477.154 731.123 484.848 731.123 494.335Z" fill="#DBDADB" stroke="#231F20" stroke-miterlimit="10"/>
<path d="M664.898 488.36C664.898 498.328 654.443 506.416 641.55 506.416C628.658 506.416 618.188 498.328 618.188 488.36C618.188 478.392 628.642 470.304 641.55 470.304C654.458 470.304 664.898 478.378 664.898 488.36Z" fill="#DBDADB" stroke="#231F20" stroke-miterlimit="10"/>
<path d="M563.062 487.223C563.062 503.165 546.337 516.106 525.718 516.106C505.1 516.106 488.359 503.165 488.359 487.223C488.359 471.28 505.084 458.339 525.718 458.339C546.352 458.339 563.062 471.265 563.062 487.223Z" fill="#DBDADB" stroke="#231F20" stroke-miterlimit="10"/>
<path d="M622.313 438.214C621.286 448.138 612.486 455.469 602.323 455.469C601.295 455.469 600.253 455.396 599.195 455.235L528.325 444.787C519.572 443.461 513.869 435.314 515.954 427.124C518.867 415.597 529.705 407.83 541.693 407.83C543.625 407.83 545.587 408.034 547.549 408.457C564.167 412.012 585.245 415.816 603.886 417.259C615.108 418.133 623.416 427.562 622.313 438.214Z" fill="#DBDADB" stroke="#231F20" stroke-miterlimit="10"/>
<path d="M858.408 445.457C858.408 452.03 853.226 457.8 846.082 458.602C818.887 461.619 754.287 466.369 651.7 459.462C643.115 458.879 636.692 451.724 637.459 443.577L637.597 442.062C638.593 431.511 648.266 423.656 659.38 424.385C694.118 426.644 767.793 429.981 829.112 422.782C842.832 421.164 855.495 430.01 858.147 442.907C858.316 443.767 858.408 444.612 858.408 445.457Z" fill="#DBDADB" stroke="#231F20" stroke-miterlimit="10"/>
<path d="M963.156 444.627L891.964 452.773C891.152 452.86 890.34 452.919 889.527 452.919C879.072 452.919 870.165 445.18 869.476 435.009C868.755 424.312 877.386 415.175 888.638 414.665C907.325 413.82 928.526 410.716 945.266 407.699C946.937 407.393 948.593 407.247 950.233 407.247C962.589 407.247 973.596 415.481 976.171 427.387C977.95 435.65 971.956 443.592 963.156 444.627Z" fill="#DBDADB" stroke="#231F20" stroke-miterlimit="10"/>
<path d="M419.79 427.052L409.396 423.248C411.175 419.809 412.861 415.539 414.348 410.25L419.928 411.823L423.822 412.916C426.121 413.558 428.176 414.942 429.371 416.909C431.196 419.911 431.272 424.283 419.79 427.052Z" fill="#E78A69" stroke="#231F20" stroke-width="1.53298" stroke-miterlimit="10"/>
<path d="M433.249 385.622C430.659 392.077 426.612 400.588 423.132 406.679C421.982 408.734 420.878 410.497 419.928 411.824L414.348 410.25C414.378 410.104 414.424 409.944 414.47 409.783C416.31 408.268 417.889 406.781 419.253 405.339C428.344 395.633 427.041 387.866 424.879 383.756C426.734 380.375 428.589 377.475 430.337 374.998C433.51 377.505 434.813 381.76 433.249 385.622Z" fill="#E78A69" stroke="#231F20" stroke-width="1.53298" stroke-miterlimit="10"/>
<path d="M441.067 384.412L433.969 401.958C432.313 406.082 427.5 408.166 423.131 406.679C426.611 400.588 430.658 392.078 433.249 385.622C434.812 381.76 433.509 377.505 430.336 374.998C431.041 373.978 431.731 373.031 432.405 372.156L436.851 374.226C440.821 376.077 442.646 380.492 441.067 384.412Z" fill="#E78A69" stroke="#231F20" stroke-width="1.53298" stroke-miterlimit="10"/>
<path d="M424.189 428.655L386.493 521.95L363.591 521.79L309.66 502.102L350.254 401.652L352.446 402.453L373.034 409.973L380.484 412.698C374.567 434.236 388.777 436.612 388.777 436.612C388.777 436.612 400.306 440.809 409.396 423.249L419.79 427.052L424.189 428.655Z" fill="white" stroke="#231F20" stroke-width="1.53298" stroke-miterlimit="10"/>
<path d="M789.407 275.932V275.961C787.23 285.346 785.237 294.308 783.674 302.047C783.183 302.251 782.677 302.455 782.156 302.644C772.667 306.127 762.12 305.821 752.6 302.367C700.77 283.568 664.99 293.973 664.99 293.973C664.99 293.973 617.069 311.548 635.526 335.316C599.777 336.132 564.181 337.123 528.953 338.275C565.438 315.395 612.118 284.734 653.569 253.213C702.349 216.111 743.877 177.828 752.907 149.702L777.373 216.038L779.749 215.994L789.407 275.932Z" fill="white" stroke="#231F20" stroke-width="1.53298" stroke-miterlimit="10"/>
<path d="M1057.2 527.488L190.654 520.479C99.8404 479.281 33.2475 419.911 -9.38477 373.045C37.3253 367.478 93.8924 362.247 157.404 357.482L155.902 426.673V426.761L157.895 426.498C158.002 426.484 158.124 426.469 158.247 426.469L176.842 423.992L176.214 356.112C231.953 352.09 292.613 348.461 356.355 345.313L350.683 350.253C343.585 356.418 340.841 365.905 343.631 374.663L352.446 402.453L350.253 401.652L309.66 502.102L363.59 521.79L386.493 521.95L424.189 428.655L419.79 427.052C431.272 424.283 431.195 419.912 429.371 416.91C428.175 414.942 426.121 413.558 423.821 412.917L419.928 411.824C420.878 410.497 421.982 408.734 423.132 406.679C427.501 408.166 432.314 406.082 433.97 401.958L441.067 384.412C442.646 380.492 440.822 376.077 436.852 374.226L432.406 372.156C433.494 370.728 434.506 369.504 435.411 368.455C439.734 363.471 443.198 357.86 445.406 351.754C445.498 351.507 445.574 351.259 445.666 351.026C448.226 343.608 451.492 336.482 455.431 329.75C457.225 343.55 460.49 359.099 465.595 376.587H465.61C473.567 374.342 480.082 370.306 485.401 364.943C485.401 364.943 485.417 364.943 485.432 364.914C496.5 358.312 511.554 349.175 528.938 338.275H528.953C564.181 337.123 599.777 336.132 635.526 335.316H635.542C637.397 337.721 639.957 340.184 643.299 342.705C647.944 346.202 653.355 348.68 659.119 350.006C671.444 352.877 691.879 353.051 728.609 349.161C731.706 348.84 734.833 349.656 737.317 351.448L785.79 386.452C785.79 386.452 810.655 410.075 853.41 392.748C853.41 392.748 872.296 383.756 898.954 393.899C696.309 414.039 592.02 396.872 536.94 387.88C521.151 385.301 505.391 392.515 497.635 405.849L431.333 522.286L621.055 523.685L665.757 524.02L693.489 524.224L728.18 524.471H728.195L759.453 524.705L794.712 524.967L821.508 525.156L866.333 525.492L1056.84 526.905L1057.2 527.488Z" fill="#0E0E0E"/>
<path d="M862.484 332.576H862.455" stroke="#231F20" stroke-width="1.53298" stroke-miterlimit="10"/>
<path d="M829.05 332.65H829.035" stroke="#231F20" stroke-width="1.53298" stroke-miterlimit="10"/>
<path d="M269.185 194.951C269.185 194.951 269.157 194.951 269.143 194.965" stroke="#231F20" stroke-width="1.53298" stroke-miterlimit="10"/>
<path d="M23.498 288.727C23.498 288.727 75.6195 276.253 159.137 278.06" stroke="#231F20" stroke-width="1.53298" stroke-miterlimit="10"/>
<path d="M322.98 269.418C349.9 267.115 385.036 265.833 426.38 268.164" stroke="#231F20" stroke-width="1.53298" stroke-miterlimit="10"/>
<path d="M653.568 253.213C677.912 251.742 707.437 251.246 741.071 253.141" stroke="#231F20" stroke-width="1.53298" stroke-miterlimit="10"/>
<path d="M970.561 251.595C996.407 249.38 1047.81 247.253 1114.98 255.996" stroke="#231F20" stroke-width="1.53298" stroke-miterlimit="10"/>
<path d="M1172.52 264.201C1172.52 264.201 1237.05 253.694 1335.44 266.504" stroke="#231F20" stroke-width="1.53298" stroke-miterlimit="10"/>
<path d="M176.841 423.992L158.093 426.484C158.016 426.484 157.955 426.484 157.893 426.498L155.9 426.761V426.673L157.403 357.482L159.135 278.06L160.775 202.296L161.388 174.301L174.511 175.001L174.756 201.334L175.477 278.584L176.212 356.112L176.841 423.992Z" fill="#F05024" stroke="#231F20" stroke-width="1.53298" stroke-miterlimit="10"/>
<path d="M-29.084 200.372L-23.7185 216.912L-11.2554 255.224C49.3588 227.186 153.755 233.54 153.755 233.54L155.656 202.645L157.204 177.303C157.204 177.303 49.7881 168.501 -29.084 200.372ZM109.774 205.851L106.723 221.036C106.033 224.49 102.829 226.982 99.1348 226.938C87.4228 226.792 61.3008 227.23 35.0561 232.753C30.8404 233.642 26.6707 231.091 25.8428 227.069L21.6271 206.522C20.8913 202.908 23.1141 199.352 26.8086 198.215C42.9663 193.217 84.9854 190.404 104.378 193.727C108.547 194.441 111.291 198.273 110.494 202.237L109.774 205.866V205.851Z" fill="white"/>
<path d="M109.774 205.851L106.723 221.036C106.033 224.49 102.829 226.982 99.1348 226.938C87.4228 226.792 61.3008 227.23 35.0561 232.753C30.8404 233.642 26.6707 231.091 25.8428 227.069L21.6271 206.522C20.8913 202.908 23.1141 199.352 26.8086 198.215C42.9663 193.217 84.9854 190.404 104.378 193.727C108.547 194.441 111.291 198.273 110.494 202.237L109.774 205.866V205.851Z" fill="white"/>
<path d="M-29.084 200.372L-23.7185 216.912L-11.2554 255.224C49.3588 227.186 153.755 233.54 153.755 233.54L155.656 202.645L157.204 177.303C157.204 177.303 49.7881 168.501 -29.084 200.372ZM109.774 205.851L106.723 221.036C106.033 224.49 102.829 226.982 99.1348 226.938C87.4228 226.792 61.3008 227.23 35.0561 232.753C30.8404 233.642 26.6707 231.091 25.8428 227.069L21.6271 206.522C20.8913 202.908 23.1141 199.352 26.8086 198.215C42.9663 193.217 84.9854 190.404 104.378 193.727C108.547 194.441 111.291 198.273 110.494 202.237L109.774 205.866V205.851Z" stroke="#231F20" stroke-width="1.53298" stroke-linecap="round" stroke-linejoin="round"/>
<path d="M109.774 205.851L106.723 221.036C106.033 224.49 102.829 226.982 99.1348 226.938C87.4228 226.792 61.3008 227.23 35.0561 232.753C30.8404 233.642 26.6707 231.091 25.8428 227.069L21.6271 206.522C20.8913 202.908 23.1141 199.352 26.8086 198.215C42.9663 193.217 84.9854 190.404 104.378 193.727C108.547 194.441 111.291 198.273 110.494 202.237L109.774 205.866V205.851Z" stroke="#231F20" stroke-width="1.53298" stroke-linecap="round" stroke-linejoin="round"/>
<path d="M157.205 177.303C157.205 177.303 49.7889 168.501 -29.0831 200.372L-29.3438 199.585L-23.0892 187.883C45.7725 162.861 132.294 166.344 151.564 167.495L157.205 177.303Z" fill="white" stroke="#231F20" stroke-width="1.53298" stroke-linecap="round" stroke-linejoin="round"/>
<path d="M228.719 196.685L186.93 220.905L188.279 194.965C191.452 191.992 210.66 193.377 228.719 196.685Z" fill="#BCD631" stroke="#231F20" stroke-width="1.53298" stroke-miterlimit="10"/>
<path d="M270.156 189.982L269.144 194.966L268.699 197.108L269.19 194.951H269.205L270.309 190.113C270.309 190.113 270.263 190.04 270.156 189.982Z" stroke="#231F20" stroke-width="1.53298" stroke-miterlimit="10"/>
<path d="M179.908 180.655H179.893C179.203 180.976 178.621 181.325 178.161 181.719L178.069 186.557L177.793 201.13L176.321 278.628L176.061 292.385C176.061 292.385 211.764 294.279 243.972 304.757L268.699 197.108L269.143 194.965L270.155 189.982C266.476 188 195.529 173.675 179.908 180.655ZM239.495 273.673L233.593 286.22C233.593 286.22 209.572 279.371 185.366 279.998L186.485 258.619C190.839 254.539 234.544 261.155 242.286 267.757L239.495 273.673ZM247.038 245.081L240.477 259.042C240.477 259.042 213.757 251.406 186.837 252.12L188.064 228.337C192.908 223.805 241.519 231.15 250.134 238.494L247.038 245.081ZM257.309 214.551L249.613 230.887C249.613 230.887 231.401 225.685 208.774 223.601C201.753 222.96 194.303 222.595 186.837 222.799L186.929 220.905L188.278 194.965C191.452 191.993 210.66 193.377 228.719 196.685C236.123 198.026 243.343 199.702 249.199 201.538H249.215C254.58 203.228 258.796 205.035 260.927 206.857L257.309 214.551Z" fill="white" stroke="#231F20" stroke-width="1.53298" stroke-miterlimit="10"/>
<path d="M593.156 181.179C555.567 203.097 518.775 221.838 502.924 222.216C502.096 222.246 501.314 222.216 500.609 222.129C500.579 222.012 500.563 221.94 500.548 221.881C500.533 221.838 500.533 221.808 500.533 221.808C500.533 221.808 480.006 226.122 466.132 249.963L455.064 258.299C435.611 272.959 416.954 288.698 400.643 306.491C398.65 308.677 396.152 310.688 393.959 312.597L356.355 345.313C292.614 348.461 231.954 352.089 176.214 356.111L175.479 278.584C175.754 278.599 176.03 278.613 176.322 278.628L176.061 292.385C176.061 292.385 211.764 294.279 243.972 304.757L268.699 197.108L269.19 194.951H269.205C317.019 191.745 351.71 189.471 351.71 189.471C428.605 185.959 510.19 183.132 593.156 181.179Z" fill="white" stroke="#231F20" stroke-width="1.53298" stroke-miterlimit="10"/>
<path d="M242.285 267.757L239.495 273.673L233.593 286.22C233.593 286.22 209.571 279.371 185.365 279.998L186.484 258.62C190.838 254.539 234.543 261.155 242.285 267.757Z" fill="white" stroke="#231F20" stroke-width="1.53298" stroke-miterlimit="10"/>
<path d="M250.135 238.494L247.038 245.081L240.477 259.042C240.477 259.042 213.757 251.406 186.838 252.12L188.064 228.337C192.908 223.805 241.519 231.149 250.135 238.494Z" fill="white" stroke="#231F20" stroke-width="1.53298" stroke-miterlimit="10"/>
<path d="M271.32 184.225L270.155 189.981C266.476 188 195.529 173.675 179.908 180.655L182.438 172.465C182.438 172.465 226.235 166.752 271.32 184.225Z" fill="white" stroke="#231F20" stroke-width="1.53298" stroke-miterlimit="10"/>
<path d="M260.928 206.857L257.31 214.551L249.614 230.888C249.614 230.888 231.402 225.685 208.775 223.601L249.2 201.538H249.216C254.581 203.228 258.797 205.035 260.928 206.857Z" fill="#BCD631" stroke="#231F20" stroke-width="1.53298" stroke-miterlimit="10"/>
<path d="M249.2 201.538L208.775 223.601C201.754 222.96 194.304 222.595 186.838 222.799L186.93 220.905L228.719 196.685C236.123 198.026 243.344 199.701 249.2 201.538Z" fill="#EF528D" stroke="#231F20" stroke-width="1.53298" stroke-miterlimit="10"/>
<path d="M268.697 197.108L268.605 197.573" stroke="#231F20" stroke-width="1.53298" stroke-miterlimit="10"/>
<path d="M394.924 466.938C394.924 476.075 390.325 484.163 383.273 489.132C380.56 491.041 377.479 492.484 374.167 493.344C371.868 493.941 369.431 494.262 366.947 494.262C364.939 494.262 362.977 494.058 361.076 493.65C356.431 492.688 352.23 490.589 348.735 487.689C342.741 482.662 338.939 475.23 338.939 466.923C338.939 456.795 344.581 447.949 352.966 443.228C355.588 441.756 358.485 440.677 361.566 440.094C363.314 439.759 365.108 439.584 366.932 439.584C368.204 439.584 369.431 439.672 370.657 439.818C374.965 440.371 378.95 441.887 382.4 444.131C389.957 449.028 394.924 457.407 394.924 466.909V466.938Z" stroke="#F9D555" stroke-width="1.53298" stroke-miterlimit="10"/>
<path d="M352.952 443.243C346.912 453.298 340.811 469.62 348.721 487.704" stroke="#F9D555" stroke-width="1.53298" stroke-miterlimit="10"/>
<path d="M361.061 493.664C346.513 471.776 354.423 451.461 361.551 440.109" stroke="#F9D555" stroke-width="1.53298" stroke-miterlimit="10"/>
<path d="M370.643 439.847C377.771 450.223 387.567 470.814 374.153 493.359" stroke="#F9D555" stroke-width="1.53298" stroke-miterlimit="10"/>
<path d="M382.4 444.161C388.164 455.017 392.748 471.383 383.29 489.132" stroke="#F9D555" stroke-width="1.53298" stroke-miterlimit="10"/>
<path d="M366.932 475.827C371.961 475.827 376.038 471.847 376.038 466.937C376.038 462.028 371.961 458.048 366.932 458.048C361.903 458.048 357.826 462.028 357.826 466.937C357.826 471.847 361.903 475.827 366.932 475.827Z" fill="#F9D555" stroke="#F9D555" stroke-width="1.53298" stroke-miterlimit="10"/>
<path d="M1003.24 382.459C1006.4 381.147 1090.78 366.72 1160.38 376.44" stroke="#231F20" stroke-width="1.53298" stroke-linecap="round" stroke-linejoin="round"/>
<path d="M47.4277 60.0793C47.4277 60.0793 189.137 42.6648 279.828 66.5497" stroke="#7D7D7D" stroke-width="1.53298" stroke-linecap="round" stroke-linejoin="round"/>
<path d="M111.783 431.001C111.783 431.001 199.133 421.937 213.819 422.593" stroke="#7D7D7D" stroke-width="1.53298" stroke-linecap="round" stroke-linejoin="round"/>
<path d="M269.203 422.564C269.203 422.564 320.527 419.358 332.086 418.658" stroke="#7D7D7D" stroke-width="1.53298" stroke-linecap="round" stroke-linejoin="round"/>
<path d="M933.875 129.242C927.559 127.172 920.86 125.351 913.869 123.762" stroke="#231F20" stroke-width="1.53298" stroke-linecap="round" stroke-linejoin="round"/>
<path d="M568.965 136.426C568.965 136.426 621.47 126.633 689.657 119.901" stroke="#7D7D7D" stroke-width="1.53298" stroke-linecap="round" stroke-linejoin="round"/>
<path d="M208.771 223.601L208.527 223.731" stroke="#231F20" stroke-width="1.53298" stroke-miterlimit="10"/>
<path d="M208.546 237.363C208.565 236.889 208.398 236.496 208.046 236.182C207.694 235.868 207.232 235.669 206.661 235.587C206.244 235.527 205.867 235.542 205.533 235.632C205.201 235.722 204.929 235.872 204.716 236.083C204.506 236.294 204.378 236.55 204.33 236.85C204.29 237.102 204.315 237.326 204.406 237.524C204.501 237.72 204.634 237.891 204.805 238.038C204.977 238.182 205.161 238.307 205.358 238.414C205.555 238.517 205.738 238.605 205.905 238.676L206.823 239.071C207.058 239.171 207.317 239.299 207.6 239.456C207.886 239.613 208.152 239.809 208.397 240.045C208.646 240.279 208.837 240.56 208.969 240.889C209.102 241.219 209.134 241.604 209.063 242.045C208.982 242.554 208.775 242.995 208.443 243.367C208.113 243.739 207.674 244.01 207.126 244.179C206.581 244.348 205.946 244.38 205.221 244.276C204.545 244.179 203.977 243.986 203.517 243.697C203.061 243.409 202.722 243.05 202.501 242.62C202.284 242.19 202.198 241.716 202.243 241.195L203.422 241.365C203.396 241.725 203.469 242.036 203.641 242.299C203.816 242.56 204.056 242.77 204.361 242.93C204.669 243.087 205.01 243.192 205.385 243.246C205.821 243.309 206.224 243.295 206.593 243.204C206.963 243.11 207.27 242.95 207.513 242.725C207.757 242.497 207.906 242.211 207.961 241.868C208.01 241.555 207.963 241.288 207.82 241.067C207.676 240.846 207.471 240.653 207.205 240.49C206.938 240.326 206.647 240.174 206.33 240.035L205.222 239.536C204.518 239.219 203.983 238.833 203.615 238.379C203.248 237.925 203.114 237.381 203.215 236.746C203.299 236.219 203.515 235.78 203.864 235.429C204.215 235.075 204.651 234.825 205.171 234.677C205.694 234.526 206.257 234.495 206.859 234.581C207.467 234.669 207.99 234.855 208.429 235.141C208.868 235.424 209.195 235.772 209.412 236.185C209.632 236.599 209.712 237.045 209.652 237.522L208.546 237.363ZM212.151 240.76L211.475 245.007L210.387 244.85L211.887 235.437L212.974 235.593L212.423 239.05L212.516 239.063C212.74 238.722 213.034 238.468 213.4 238.302C213.77 238.132 214.232 238.088 214.788 238.168C215.27 238.237 215.677 238.394 216.009 238.64C216.341 238.882 216.576 239.215 216.712 239.639C216.853 240.06 216.874 240.574 216.778 241.181L216.063 245.667L214.976 245.511L215.679 241.098C215.768 240.537 215.691 240.083 215.448 239.734C215.209 239.383 214.833 239.171 214.32 239.097C213.964 239.046 213.632 239.075 213.326 239.184C213.022 239.294 212.766 239.481 212.558 239.746C212.352 240.011 212.216 240.349 212.151 240.76ZM220.904 246.514C220.265 246.422 219.728 246.19 219.295 245.817C218.864 245.445 218.557 244.967 218.373 244.382C218.193 243.798 218.161 243.142 218.277 242.412C218.394 241.677 218.63 241.054 218.985 240.544C219.342 240.035 219.785 239.663 220.312 239.428C220.843 239.194 221.427 239.123 222.066 239.215C222.705 239.307 223.24 239.539 223.671 239.912C224.105 240.284 224.411 240.764 224.591 241.351C224.774 241.939 224.807 242.6 224.69 243.336C224.574 244.065 224.337 244.683 223.98 245.189C223.626 245.696 223.184 246.067 222.653 246.301C222.126 246.535 221.542 246.606 220.904 246.514ZM221.059 245.54C221.544 245.61 221.963 245.543 222.316 245.34C222.669 245.137 222.953 244.844 223.168 244.461C223.382 244.078 223.527 243.651 223.603 243.179C223.678 242.707 223.673 242.257 223.587 241.827C223.501 241.398 223.322 241.035 223.049 240.739C222.776 240.443 222.396 240.259 221.911 240.19C221.426 240.12 221.006 240.188 220.653 240.394C220.3 240.6 220.015 240.896 219.8 241.282C219.585 241.668 219.439 242.097 219.364 242.569C219.289 243.041 219.294 243.49 219.381 243.916C219.467 244.342 219.647 244.702 219.92 244.995C220.194 245.289 220.574 245.47 221.059 245.54ZM225.371 249.715L226.918 240.007L227.968 240.159L227.789 241.28L227.918 241.299C228.018 241.188 228.153 241.047 228.325 240.878C228.5 240.705 228.733 240.563 229.024 240.452C229.319 240.337 229.697 240.313 230.157 240.38C230.753 240.465 231.255 240.69 231.662 241.052C232.069 241.415 232.357 241.887 232.525 242.47C232.693 243.052 232.718 243.714 232.6 244.455C232.48 245.203 232.25 245.833 231.908 246.344C231.566 246.853 231.145 247.225 230.646 247.461C230.147 247.693 229.603 247.767 229.013 247.682C228.558 247.616 228.206 247.489 227.957 247.299C227.708 247.107 227.525 246.903 227.409 246.689C227.292 246.472 227.205 246.293 227.145 246.153L227.053 246.139L226.459 249.872L225.371 249.715ZM227.424 243.691C227.339 244.225 227.343 244.706 227.434 245.136C227.527 245.563 227.705 245.914 227.969 246.187C228.234 246.457 228.585 246.623 229.021 246.686C229.475 246.751 229.874 246.687 230.216 246.491C230.562 246.293 230.844 246.002 231.062 245.616C231.284 245.228 231.435 244.783 231.515 244.28C231.594 243.784 231.589 243.325 231.499 242.905C231.412 242.482 231.234 242.132 230.964 241.855C230.697 241.575 230.334 241.402 229.873 241.336C229.431 241.272 229.041 241.33 228.705 241.511C228.369 241.688 228.092 241.965 227.875 242.341C227.658 242.714 227.508 243.164 227.424 243.691Z" fill="#231F20"/>
<path d="M204.255 267.566C204.21 267.283 204.131 267.023 204.02 266.788C203.913 266.55 203.771 266.341 203.597 266.159C203.425 265.978 203.221 265.829 202.984 265.713C202.747 265.597 202.479 265.517 202.181 265.474C201.692 265.404 201.227 265.466 200.786 265.66C200.346 265.854 199.968 266.18 199.654 266.636C199.339 267.093 199.125 267.678 199.011 268.391C198.898 269.104 198.922 269.723 199.083 270.248C199.244 270.773 199.508 271.191 199.876 271.502C200.245 271.813 200.684 272.005 201.195 272.078C201.668 272.146 202.1 272.106 202.492 271.956C202.887 271.805 203.215 271.559 203.476 271.218C203.739 270.874 203.911 270.451 203.991 269.947L204.287 270.055L201.805 269.698L201.946 268.813L205.089 269.266L204.948 270.15C204.84 270.829 204.601 271.398 204.231 271.857C203.864 272.317 203.404 272.649 202.853 272.852C202.304 273.052 201.702 273.106 201.046 273.011C200.315 272.906 199.7 272.642 199.202 272.219C198.705 271.797 198.353 271.247 198.145 270.57C197.939 269.893 197.906 269.12 198.044 268.252C198.148 267.6 198.329 267.027 198.586 266.532C198.847 266.035 199.167 265.626 199.548 265.305C199.929 264.984 200.356 264.757 200.827 264.625C201.299 264.493 201.8 264.465 202.329 264.541C202.765 264.604 203.16 264.728 203.515 264.913C203.873 265.096 204.181 265.329 204.439 265.61C204.7 265.889 204.903 266.207 205.049 266.566C205.196 266.921 205.275 267.304 205.287 267.715L204.255 267.566ZM207.815 274.018C207.423 273.962 207.079 273.837 206.782 273.643C206.486 273.447 206.267 273.195 206.124 272.886C205.981 272.575 205.941 272.218 206.006 271.816C206.062 271.462 206.177 271.186 206.352 270.986C206.527 270.784 206.742 270.636 206.996 270.544C207.25 270.451 207.522 270.395 207.814 270.374C208.109 270.35 208.404 270.341 208.697 270.344C209.081 270.35 209.392 270.358 209.629 270.368C209.87 270.375 210.049 270.355 210.166 270.309C210.286 270.263 210.359 270.164 210.383 270.011L210.388 269.979C210.451 269.582 210.392 269.258 210.209 269.007C210.029 268.756 209.72 268.599 209.282 268.536C208.828 268.471 208.456 268.519 208.167 268.68C207.877 268.842 207.662 269.027 207.521 269.237L206.67 268.786C206.891 268.434 207.152 268.172 207.454 268.002C207.759 267.829 208.078 267.724 208.411 267.687C208.747 267.648 209.071 267.65 209.383 267.695C209.582 267.724 209.806 267.781 210.057 267.866C210.31 267.949 210.546 268.081 210.765 268.26C210.986 268.44 211.154 268.688 211.269 269.003C211.384 269.319 211.402 269.722 211.324 270.212L210.676 274.282L209.724 274.145L209.858 273.309L209.809 273.302C209.723 273.426 209.593 273.554 209.418 273.686C209.244 273.817 209.023 273.918 208.756 273.989C208.489 274.06 208.175 274.07 207.815 274.018ZM208.096 273.187C208.472 273.241 208.801 273.213 209.082 273.102C209.367 272.993 209.593 272.83 209.762 272.616C209.933 272.402 210.04 272.167 210.081 271.909L210.219 271.041C210.171 271.083 210.075 271.115 209.932 271.135C209.791 271.153 209.63 271.164 209.448 271.168C209.269 271.17 209.095 271.17 208.925 271.167C208.758 271.162 208.622 271.159 208.518 271.158C208.266 271.154 208.026 271.173 207.8 271.215C207.577 271.254 207.388 271.335 207.233 271.458C207.082 271.579 206.987 271.76 206.949 272.001C206.896 272.331 206.979 272.598 207.197 272.802C207.417 273.004 207.717 273.132 208.096 273.187ZM214.675 266.433L213.363 274.669L212.412 274.532L213.724 266.296L214.675 266.433ZM217.368 266.821L216.056 275.056L215.105 274.92L216.417 266.684L217.368 266.821ZM220.374 275.81C219.777 275.724 219.283 275.518 218.893 275.193C218.505 274.866 218.232 274.448 218.074 273.94C217.919 273.43 217.892 272.858 217.993 272.225C218.093 271.593 218.298 271.052 218.606 270.602C218.917 270.151 219.302 269.82 219.762 269.609C220.224 269.396 220.735 269.329 221.294 269.41C221.616 269.456 221.926 269.556 222.224 269.708C222.521 269.861 222.779 270.076 222.999 270.354C223.219 270.63 223.374 270.976 223.464 271.392C223.555 271.808 223.554 272.305 223.462 272.881L223.398 273.283L218.626 272.596L218.757 271.776L222.561 272.324C222.617 271.975 222.597 271.654 222.5 271.36C222.407 271.067 222.245 270.823 222.015 270.628C221.788 270.434 221.502 270.312 221.158 270.262C220.779 270.208 220.437 270.254 220.13 270.402C219.826 270.548 219.577 270.759 219.382 271.035C219.187 271.311 219.062 271.62 219.008 271.96L218.921 272.507C218.846 272.974 218.864 273.381 218.974 273.728C219.086 274.073 219.274 274.351 219.537 274.562C219.801 274.77 220.125 274.902 220.509 274.957C220.759 274.993 220.991 274.991 221.203 274.95C221.419 274.907 221.612 274.825 221.782 274.704C221.953 274.581 222.096 274.418 222.211 274.215L223.089 274.604C222.942 274.901 222.736 275.151 222.47 275.354C222.205 275.555 221.894 275.697 221.537 275.78C221.181 275.86 220.793 275.87 220.374 275.81ZM224.404 276.258L225.388 270.081L226.307 270.214L226.159 271.147L226.223 271.156C226.385 270.866 226.628 270.648 226.954 270.5C227.28 270.352 227.628 270.305 227.999 270.358C228.069 270.369 228.156 270.382 228.261 270.4C228.365 270.418 228.444 270.433 228.496 270.446L228.343 271.412C228.312 271.399 228.24 271.376 228.127 271.343C228.017 271.308 227.899 271.282 227.773 271.264C227.472 271.22 227.193 271.245 226.936 271.337C226.683 271.426 226.47 271.571 226.298 271.771C226.129 271.969 226.023 272.207 225.978 272.486L225.356 276.395L224.404 276.258ZM229.059 279.297C228.898 279.274 228.757 279.24 228.635 279.195C228.512 279.153 228.429 279.116 228.384 279.085L228.759 278.283C228.981 278.376 229.182 278.427 229.362 278.436C229.541 278.445 229.711 278.389 229.871 278.267C230.033 278.147 230.197 277.939 230.362 277.642L230.616 277.185L229.316 270.647L230.348 270.795L231.273 275.963L231.337 275.973L233.83 271.296L234.862 271.445L231.107 278.144C230.938 278.446 230.749 278.689 230.541 278.873C230.333 279.06 230.105 279.187 229.858 279.256C229.613 279.325 229.347 279.339 229.059 279.297Z" fill="#231F20"/>
<path d="M56.7319 211.418L56.4713 215.309L54.877 215.702L55.8274 203.301L57.6976 202.835L64.918 213.225L63.2624 213.633L60.9936 210.369L56.7472 211.418H56.7319ZM60.3497 209.29L58.2802 206.303C57.8049 205.618 57.4524 204.991 57.0844 204.379H57.0538C57.0538 205.108 57.0538 205.851 57.0078 206.594L56.7319 210.179L60.3497 209.29Z" fill="#231F20"/>
<path d="M67.4623 198.069V200.503H69.7771V201.669H67.4623V206.23C67.4623 207.279 67.7689 207.877 68.6733 207.877C69.1026 207.877 69.4092 207.819 69.6084 207.775L69.6851 208.926C69.3785 209.043 68.8726 209.13 68.2441 209.13C67.4929 209.13 66.8797 208.897 66.4965 208.489C66.0366 208.037 65.868 207.279 65.868 206.288V201.669H64.4883V200.503H65.868V198.477L67.4469 198.069H67.4623Z" fill="#231F20"/>
<path d="M72.7207 207.221C72.9047 206.361 73.0426 205.662 73.1346 204.962L74.5143 205.239L74.2997 206.594H74.361C75.0202 205.909 75.986 205.341 77.427 205.618C78.6074 205.851 79.3585 206.711 79.5272 207.76H79.5578C79.9257 207.352 80.355 207.061 80.7689 206.886C81.3667 206.609 81.9953 206.521 82.8231 206.682C83.9728 206.915 85.5365 207.964 84.9079 210.835L83.8502 215.717L82.3019 215.411L83.3136 210.718C83.6662 209.13 83.2523 208.052 81.9799 207.804C81.0755 207.629 80.2477 208.124 79.8031 208.809C79.6805 208.999 79.5731 209.261 79.5118 209.538L78.4081 214.653L76.8598 214.347L77.9328 209.378C78.2241 208.066 77.8102 206.988 76.6145 206.74C75.618 206.551 74.7442 207.163 74.3303 207.862C74.1924 208.066 74.1004 208.314 74.0391 208.576L72.9506 213.575L71.4023 213.269L72.7207 207.221Z" fill="#231F20"/>
</g>
<defs>
<clipPath id="clip0_6662_9077">
<rect width="1277" height="516" fill="white"/>
</clipPath>
</defs>
</svg>
