<svg width="486" height="42" viewBox="0 0 486 42" fill="none" xmlns="http://www.w3.org/2000/svg">
<path d="M208.08 26.1325C207.343 26.1325 206.71 25.9818 206.18 25.6804C205.653 25.376 205.247 24.9528 204.961 24.4109C204.678 23.866 204.536 23.2343 204.536 22.5158C204.536 21.7943 204.678 21.1626 204.961 20.6207C205.247 20.0758 205.653 19.6526 206.18 19.3513C206.71 19.0468 207.343 18.8946 208.08 18.8946C208.816 18.8946 209.448 19.0468 209.975 19.3513C210.504 19.6526 210.911 20.0758 211.194 20.6207C211.48 21.1626 211.623 21.7943 211.623 22.5158C211.623 23.2343 211.48 23.866 211.194 24.4109C210.911 24.9528 210.504 25.376 209.975 25.6804C209.448 25.9818 208.816 26.1325 208.08 26.1325ZM208.093 24.4475C208.361 24.4475 208.588 24.3653 208.774 24.2009C208.959 24.0365 209.101 23.8081 209.198 23.5159C209.299 23.2236 209.349 22.8857 209.349 22.5021C209.349 22.1125 209.299 21.7715 209.198 21.4792C209.101 21.187 208.959 20.9587 208.774 20.7943C208.588 20.6299 208.361 20.5477 208.093 20.5477C207.816 20.5477 207.582 20.6299 207.39 20.7943C207.201 20.9587 207.057 21.187 206.956 21.4792C206.859 21.7715 206.81 22.1125 206.81 22.5021C206.81 22.8857 206.859 23.2236 206.956 23.5159C207.057 23.8081 207.201 24.0365 207.39 24.2009C207.582 24.3653 207.816 24.4475 208.093 24.4475ZM212.767 26.0001V18.9859H215V26.0001H212.767ZM213.886 18.1685C213.572 18.1685 213.303 18.065 213.078 17.858C212.852 17.648 212.74 17.3953 212.74 17.1C212.74 16.8077 212.852 16.5581 213.078 16.3511C213.303 16.141 213.572 16.036 213.886 16.036C214.203 16.036 214.472 16.141 214.694 16.3511C214.919 16.5581 215.032 16.8077 215.032 17.1C215.032 17.3953 214.919 17.648 214.694 17.858C214.472 18.065 214.203 18.1685 213.886 18.1685ZM218.654 21.9998V26.0001H216.421V18.9859H218.545V20.2737H218.623C218.778 19.8444 219.043 19.508 219.417 19.2645C219.792 19.0179 220.238 18.8946 220.755 18.8946C221.248 18.8946 221.676 19.0057 222.038 19.228C222.404 19.4471 222.687 19.7546 222.888 20.1504C223.092 20.5431 223.192 21.0028 223.189 21.5295V26.0001H220.956V21.9679C220.959 21.5782 220.86 21.2737 220.659 21.0546C220.461 20.8354 220.186 20.7258 219.833 20.7258C219.598 20.7258 219.391 20.7775 219.212 20.881C219.035 20.9815 218.898 21.1261 218.801 21.3148C218.706 21.5036 218.658 21.7319 218.654 21.9998ZM230.695 21.1276L228.645 21.1824C228.624 21.0363 228.566 20.9069 228.471 20.7943C228.377 20.6786 228.254 20.5888 228.101 20.5248C227.952 20.4579 227.779 20.4244 227.581 20.4244C227.322 20.4244 227.101 20.4761 226.919 20.5796C226.739 20.6831 226.651 20.8232 226.654 20.9998C226.651 21.1367 226.706 21.2555 226.818 21.3559C226.934 21.4564 227.139 21.5371 227.435 21.598L228.786 21.8537C229.487 21.9876 230.007 22.2099 230.348 22.5204C230.692 22.8309 230.866 23.2419 230.869 23.7533C230.866 24.2344 230.723 24.6529 230.439 25.0091C230.159 25.3653 229.776 25.6424 229.289 25.8402C228.802 26.0351 228.244 26.1325 227.617 26.1325C226.616 26.1325 225.826 25.927 225.247 25.516C224.672 25.102 224.343 24.5479 224.261 23.8538L226.467 23.799C226.515 24.0547 226.642 24.2496 226.846 24.3835C227.05 24.5175 227.31 24.5844 227.626 24.5844C227.913 24.5844 228.146 24.5312 228.325 24.4246C228.505 24.3181 228.596 24.1765 228.599 23.9999C228.596 23.8416 228.526 23.7153 228.389 23.6209C228.252 23.5235 228.037 23.4474 227.745 23.3926L226.521 23.1597C225.818 23.0318 225.295 22.7959 224.951 22.4519C224.607 22.1048 224.436 21.6634 224.439 21.1276C224.436 20.6588 224.561 20.2585 224.814 19.9266C225.066 19.5918 225.425 19.336 225.891 19.1595C226.357 18.9829 226.907 18.8946 227.54 18.8946C228.49 18.8946 229.238 19.094 229.786 19.4928C230.334 19.8886 230.637 20.4335 230.695 21.1276Z" fill="white"/>
<path d="M246.037 37.2468C247.959 36.6434 247.293 29.0674 244.549 20.3252C241.804 11.583 238.021 4.98514 236.099 5.58849C234.177 6.19185 234.844 13.7679 237.588 22.5101C240.332 31.2523 244.115 37.8501 246.037 37.2468Z" fill="white"/>
<path d="M236.392 10.6291L236.398 10.6278" stroke="#231F20" stroke-width="0.50687" stroke-miterlimit="10"/>
<path d="M239.237 4.7362C239.21 4.73973 239.186 4.74509 239.161 4.75335L239.142 4.75763L236.13 5.57619L236.116 6.02331L236.07 7.45673L236.032 8.64521L236.862 8.61784L238.064 8.57502L239.164 8.07962L239.17 7.85751L239.238 4.73331L239.237 4.7362Z" fill="white"/>
<path d="M249.202 35.7727L249.335 36.2928L248.792 36.4483L246.031 37.247L245.92 36.8535L245.543 35.5582L245.329 34.8135L246.384 34.435L247.126 34.1671L249.202 35.7727Z" fill="white"/>
<path d="M249.098 36.4116C251.02 35.8083 250.353 28.2322 247.609 19.49C244.865 10.7478 241.082 4.14999 239.16 4.75335C237.238 5.35671 237.904 12.9328 240.649 21.675C243.393 30.4172 247.176 37.015 249.098 36.4116Z" fill="white"/>
<path d="M235.432 6.25466L235.434 6.25176L236.116 6.02715L236.993 5.73866L238.619 5.20294L238.621 5.20005" stroke="#231F20" stroke-width="0.380153" stroke-miterlimit="10"/>
<path d="M238.182 6.76895L238.147 6.77934L236.073 7.46145L235.06 7.79334" stroke="#231F20" stroke-width="0.380153" stroke-miterlimit="10"/>
<path d="M239.047 7.90009L239.172 7.86157" stroke="#231F20" stroke-width="0.380153" stroke-miterlimit="10"/>
<path d="M238.065 8.22671L236.868 8.62033L236.866 8.62322L235.002 9.23535" stroke="#231F20" stroke-width="0.380153" stroke-miterlimit="10"/>
<path d="M235.066 10.6332L238.115 9.62774" stroke="#231F20" stroke-width="0.380153" stroke-miterlimit="10"/>
<path d="M235.197 12.0089L238.241 11.0046" stroke="#231F20" stroke-width="0.380153" stroke-miterlimit="10"/>
<path d="M235.386 13.3641L238.426 12.3655" stroke="#231F20" stroke-width="0.380153" stroke-miterlimit="10"/>
<path d="M235.616 14.7075L238.647 13.7111" stroke="#231F20" stroke-width="0.380153" stroke-miterlimit="10"/>
<path d="M235.878 16.0408L238.909 15.0444" stroke="#231F20" stroke-width="0.380153" stroke-miterlimit="10"/>
<path d="M236.173 17.3612L239.196 16.3641" stroke="#231F20" stroke-width="0.380153" stroke-miterlimit="10"/>
<path d="M239.515 17.6804L236.494 18.6747L236.491 18.6728" stroke="#231F20" stroke-width="0.380153" stroke-miterlimit="10"/>
<path d="M236.84 19.9799L239.857 18.9867" stroke="#231F20" stroke-width="0.380153" stroke-miterlimit="10"/>
<path d="M237.212 21.2796L240.228 20.2864" stroke="#231F20" stroke-width="0.380153" stroke-miterlimit="10"/>
<path d="M237.602 22.5637L240.617 21.5734" stroke="#231F20" stroke-width="0.380153" stroke-miterlimit="10"/>
<path d="M238.02 23.8495L241.03 22.8602" stroke="#231F20" stroke-width="0.380153" stroke-miterlimit="10"/>
<path d="M238.459 25.1224L241.467 24.1313" stroke="#231F20" stroke-width="0.380153" stroke-miterlimit="10"/>
<path d="M238.922 26.3882L241.926 25.4029" stroke="#231F20" stroke-width="0.380153" stroke-miterlimit="10"/>
<path d="M239.41 27.6482L242.411 26.6611" stroke="#231F20" stroke-width="0.380153" stroke-miterlimit="10"/>
<path d="M239.928 28.8951L242.921 27.9073" stroke="#231F20" stroke-width="0.380153" stroke-miterlimit="10"/>
<path d="M240.471 30.1334L243.462 29.1485" stroke="#231F20" stroke-width="0.380153" stroke-miterlimit="10"/>
<path d="M241.051 31.3627L244.042 30.3777" stroke="#231F20" stroke-width="0.380153" stroke-miterlimit="10"/>
<path d="M241.672 32.5788L244.658 31.595" stroke="#231F20" stroke-width="0.380153" stroke-miterlimit="10"/>
<path d="M242.345 33.7739L245.325 32.794" stroke="#231F20" stroke-width="0.380153" stroke-miterlimit="10"/>
<path d="M243.095 34.9492L246.063 33.9696" stroke="#231F20" stroke-width="0.380153" stroke-miterlimit="10"/>
<path d="M246.913 35.1074L246.912 35.1102L245.546 35.5595L243.962 36.0808" stroke="#231F20" stroke-width="0.380153" stroke-miterlimit="10"/>
<path d="M250.152 34.0441L250.154 34.0407" stroke="#231F20" stroke-width="0.380153" stroke-miterlimit="10"/>
<path d="M245.153 37.1086L245.923 36.8542L246.693 36.5998L248.028 36.1599" stroke="#231F20" stroke-width="0.380153" stroke-miterlimit="10"/>
<path d="M257.084 26.1325C256.347 26.1325 255.714 25.9818 255.184 25.6804C254.657 25.376 254.251 24.9528 253.965 24.4109C253.682 23.866 253.54 23.2343 253.54 22.5158C253.54 21.7943 253.682 21.1626 253.965 20.6207C254.251 20.0758 254.657 19.6526 255.184 19.3513C255.714 19.0468 256.347 18.8946 257.084 18.8946C257.82 18.8946 258.452 19.0468 258.979 19.3513C259.508 19.6526 259.915 20.0758 260.198 20.6207C260.484 21.1626 260.627 21.7943 260.627 22.5158C260.627 23.2343 260.484 23.866 260.198 24.4109C259.915 24.9528 259.508 25.376 258.979 25.6804C258.452 25.9818 257.82 26.1325 257.084 26.1325ZM257.097 24.4475C257.365 24.4475 257.592 24.3653 257.778 24.2009C257.963 24.0365 258.105 23.8081 258.202 23.5159C258.303 23.2236 258.353 22.8857 258.353 22.5021C258.353 22.1125 258.303 21.7715 258.202 21.4792C258.105 21.187 257.963 20.9587 257.778 20.7943C257.592 20.6299 257.365 20.5477 257.097 20.5477C256.82 20.5477 256.586 20.6299 256.394 20.7943C256.205 20.9587 256.061 21.187 255.96 21.4792C255.863 21.7715 255.814 22.1125 255.814 22.5021C255.814 22.8857 255.863 23.2236 255.96 23.5159C256.061 23.8081 256.205 24.0365 256.394 24.2009C256.586 24.3653 256.82 24.4475 257.097 24.4475ZM261.771 26.0001V18.9859H264.004V26.0001H261.771ZM262.89 18.1685C262.576 18.1685 262.307 18.065 262.082 17.858C261.856 17.648 261.744 17.3953 261.744 17.1C261.744 16.8077 261.856 16.5581 262.082 16.3511C262.307 16.141 262.576 16.036 262.89 16.036C263.206 16.036 263.476 16.141 263.698 16.3511C263.923 16.5581 264.036 16.8077 264.036 17.1C264.036 17.3953 263.923 17.648 263.698 17.858C263.476 18.065 263.206 18.1685 262.89 18.1685ZM267.658 21.9998V26.0001H265.425V18.9859H267.549V20.2737H267.626C267.782 19.8444 268.047 19.508 268.421 19.2645C268.795 19.0179 269.241 18.8946 269.759 18.8946C270.252 18.8946 270.68 19.0057 271.042 19.228C271.407 19.4471 271.691 19.7546 271.892 20.1504C272.095 20.5431 272.196 21.0028 272.193 21.5295V26.0001H269.96V21.9679C269.963 21.5782 269.864 21.2737 269.663 21.0546C269.465 20.8354 269.19 20.7258 268.837 20.7258C268.602 20.7258 268.395 20.7775 268.216 20.881C268.039 20.9815 267.902 21.1261 267.805 21.3148C267.71 21.5036 267.661 21.7319 267.658 21.9998ZM279.699 21.1276L277.649 21.1824C277.627 21.0363 277.57 20.9069 277.475 20.7943C277.381 20.6786 277.258 20.5888 277.105 20.5248C276.956 20.4579 276.783 20.4244 276.585 20.4244C276.326 20.4244 276.105 20.4761 275.923 20.5796C275.743 20.6831 275.655 20.8232 275.658 20.9998C275.655 21.1367 275.709 21.2555 275.822 21.3559C275.938 21.4564 276.143 21.5371 276.439 21.598L277.79 21.8537C278.49 21.9876 279.011 22.2099 279.352 22.5204C279.696 22.8309 279.87 23.2419 279.873 23.7533C279.87 24.2344 279.726 24.6529 279.443 25.0091C279.163 25.3653 278.78 25.6424 278.293 25.8402C277.806 26.0351 277.248 26.1325 276.621 26.1325C275.62 26.1325 274.83 25.927 274.251 25.516C273.676 25.102 273.347 24.5479 273.265 23.8538L275.471 23.799C275.519 24.0547 275.646 24.2496 275.85 24.3835C276.053 24.5175 276.314 24.5844 276.63 24.5844C276.917 24.5844 277.149 24.5312 277.329 24.4246C277.509 24.3181 277.6 24.1765 277.603 23.9999C277.6 23.8416 277.53 23.7153 277.393 23.6209C277.256 23.5235 277.041 23.4474 276.749 23.3926L275.525 23.1597C274.822 23.0318 274.298 22.7959 273.954 22.4519C273.61 22.1048 273.44 21.6634 273.443 21.1276C273.44 20.6588 273.565 20.2585 273.817 19.9266C274.07 19.5918 274.429 19.336 274.895 19.1595C275.361 18.9829 275.91 18.8946 276.544 18.8946C277.493 18.8946 278.242 19.094 278.79 19.4928C279.338 19.8886 279.641 20.4335 279.699 21.1276Z" fill="white"/>
</svg>
