<svg width="287" height="228" viewBox="0 0 287 228" fill="none" xmlns="http://www.w3.org/2000/svg">
<g clip-path="url(#clip0_6618_10752)">
<rect width="287" height="227.582" fill="#191919"/>
<path d="M119.884 202.077C141.325 202.077 158.706 199.208 158.706 195.669C158.706 192.13 141.325 189.261 119.884 189.261C98.4435 189.261 81.0625 192.13 81.0625 195.669C81.0625 199.208 98.4435 202.077 119.884 202.077Z" fill="#231F20"/>
<path d="M108.374 318.887C107.054 310.048 115.019 298.297 115.019 298.297L149.808 182.533H111.678C90.2512 261.014 62.9805 289.677 62.9805 289.677L108.374 318.896V318.887Z" fill="white"/>
<path d="M106.533 178.565H153.01L174.71 328.809H114.307L106.533 178.565Z" fill="white"/>
<path d="M104.306 216.968C104.306 216.968 101.521 267.896 77.3086 291.407" stroke="#231F20" stroke-width="0.455119" stroke-miterlimit="10"/>
<path d="M147.73 310.75L133.521 185.101" stroke="#231F20" stroke-width="0.455119" stroke-miterlimit="10"/>
<path d="M132.55 310.749L122.119 193.447" stroke="#231F20" stroke-width="0.455119" stroke-miterlimit="10"/>
<path d="M136.801 123.814C136.801 123.814 150.163 135.501 158.719 138.214C167.276 140.926 173.538 142.911 173.538 142.911C173.538 142.911 187.628 143.748 193.991 146.561C200.354 149.373 195.866 161.479 193.991 163.045C192.116 164.611 190.55 167.951 182.822 165.239C175.095 162.526 143.691 147.707 141.807 147.189C139.923 146.67 136.801 123.814 136.801 123.814Z" fill="#F1D1A4" stroke="#231F20" stroke-width="0.455119" stroke-miterlimit="10"/>
<path d="M107.253 63.3526C107.253 63.3526 107.945 61.3865 110.803 60.4216C113.652 59.4568 127.169 65.3642 129.381 67.8674C130.81 69.4876 130.91 69.1235 133.067 78.0985C135.343 87.5558 159.018 194.837 159.018 194.837H81.375L81.8392 192.47L107.253 63.3435V63.3526Z" fill="#748AED" stroke="#231F20" stroke-width="0.455119" stroke-miterlimit="10"/>
<path d="M114.306 118.598C121.711 118.598 127.714 117.107 127.714 115.267C127.714 113.427 121.711 111.935 114.306 111.935C106.901 111.935 100.898 113.427 100.898 115.267C100.898 117.107 106.901 118.598 114.306 118.598Z" fill="#231F20"/>
<path d="M185.896 159.195C188.52 159.195 190.647 157.068 190.647 154.444C190.647 151.82 188.52 149.692 185.896 149.692C183.272 149.692 181.145 151.82 181.145 154.444C181.145 157.068 183.272 159.195 185.896 159.195Z" fill="#FDFDFD"/>
<path d="M117.664 82.9717L126.885 115.267" stroke="#231F20" stroke-width="0.455119" stroke-miterlimit="10"/>
<path d="M108.693 115.895C108.693 115.895 110.158 143.157 113.39 154.243C116.621 165.33 119.133 180.485 119.133 180.485C119.133 180.485 125.705 203.879 127.271 204.998C128.836 206.118 132.905 208.047 137.911 206.527C142.918 204.998 145.53 202.358 145.421 197.68C145.312 193.001 133.215 172.448 133.215 172.448C133.215 172.448 127.262 150.575 127.89 141.727C128.518 132.88 128.154 119.053 118.942 114.875C118.942 114.875 109.521 110.297 108.684 115.886L108.693 115.895Z" fill="#F1D1A4"/>
<path d="M123.786 56.5288C123.786 56.5288 123.813 56.6471 123.867 56.8747C124.304 58.686 126.362 67.0875 127.472 68.0797C128.728 69.1902 110.496 62.864 110.496 62.864C110.496 62.864 112.371 54.0984 113.837 53.4067C115.302 52.7149 123.813 56.6562 123.813 56.6562" fill="#F1D1A4"/>
<path opacity="0.5" d="M110.867 61.2531L123.538 58.6771L114.535 50.2756L110.867 61.2531Z" fill="#231F20"/>
<path d="M119.884 59.5236C125.489 59.5236 130.033 53.8223 130.033 46.7894C130.033 39.7565 125.489 34.0552 119.884 34.0552C114.278 34.0552 109.734 39.7565 109.734 46.7894C109.734 53.8223 114.278 59.5236 119.884 59.5236Z" fill="#F1D1A4" stroke="#231F20" stroke-width="0.455119" stroke-miterlimit="10"/>
<path d="M107.78 48.0011C108.002 46.8224 108.101 45.589 107.879 44.4195C107.649 43.2408 107.074 42.117 106.163 41.4591C105.637 41.0754 105.604 40.9749 105.276 40.783C103.182 39.5587 104.438 36.9364 105.317 35.8583C109.841 30.3123 127.627 28.6859 130.263 36.6897C130.78 38.2521 130.55 40.4084 129.532 41.5414C127.742 43.5515 123.636 42.318 122.462 41.9708C121.017 41.5414 120.532 41.0663 118.496 40.6277C115.031 39.8785 113.077 40.5181 113.2 44.1454C113.241 45.4611 113.101 46.7219 112.781 47.9919C112.527 49.0061 112.009 49.9289 111.385 50.7238C110.868 51.3725 110.227 51.9756 109.456 52.1035C108.733 52.2314 107.863 51.7472 107.534 50.9979C107.156 50.1482 107.624 48.8691 107.789 48.0102L107.78 48.0011Z" fill="#F00640"/>
<path d="M185.113 157.201L212.348 343.482" stroke="white" stroke-width="1.82048" stroke-miterlimit="10"/>
</g>
<defs>
<clipPath id="clip0_6618_10752">
<rect width="287" height="227.582" fill="white"/>
</clipPath>
</defs>
</svg>
