<svg width="37" height="37" viewBox="0 0 37 37" fill="none" xmlns="http://www.w3.org/2000/svg">
<path d="M18.2025 0.118652H18.2024C8.21531 0.118652 0.119141 8.21482 0.119141 18.202V18.2021C0.119141 28.1892 8.21531 36.2854 18.2024 36.2854H18.2025C28.1897 36.2854 36.2858 28.1892 36.2858 18.2021V18.202C36.2858 8.21482 28.1897 0.118652 18.2025 0.118652Z" fill="url(#paint0_linear_6658_9072)" fill-opacity="0.2"/>
<path d="M18.2025 0.118652H18.2024C8.21531 0.118652 0.119141 8.21482 0.119141 18.202V18.2021C0.119141 28.1892 8.21531 36.2854 18.2024 36.2854H18.2025C28.1897 36.2854 36.2858 28.1892 36.2858 18.2021V18.202C36.2858 8.21482 28.1897 0.118652 18.2025 0.118652Z" stroke="white" stroke-opacity="0.26" stroke-width="0.237333"/>
<path d="M16.2184 23.6167C15.7576 23.6167 15.3201 23.5059 14.9351 23.2842C14.0251 22.7592 13.5234 21.6917 13.5234 20.2859V16.1267C13.5234 14.715 14.0251 13.6534 14.9351 13.1284C15.8451 12.6034 17.0176 12.7025 18.2426 13.4084L21.8418 15.485C23.0609 16.1909 23.7376 17.1592 23.7376 18.2092C23.7376 19.2592 23.0668 20.2275 21.8418 20.9334L18.2426 23.01C17.5368 23.4125 16.8484 23.6167 16.2184 23.6167ZM16.2184 13.665C15.9034 13.665 15.6234 13.735 15.3726 13.8809C14.7426 14.2425 14.3984 15.0417 14.3984 16.1267V20.28C14.3984 21.365 14.7426 22.1584 15.3726 22.5259C16.0026 22.8934 16.8659 22.7884 17.8051 22.2459L21.4043 20.1692C22.3434 19.6267 22.8626 18.9325 22.8626 18.2034C22.8626 17.4742 22.3434 16.78 21.4043 16.2375L17.8051 14.1609C17.2334 13.8342 16.6968 13.665 16.2184 13.665Z" fill="#FDFDFD"/>
<path d="M16.2184 13.665C15.9034 13.665 15.6234 13.735 15.3726 13.8809C14.7426 14.2425 14.3984 15.0417 14.3984 16.1267V20.28C14.3984 21.365 14.7426 22.1584 15.3726 22.5259C16.0026 22.8934 16.8659 22.7884 17.8051 22.2459L21.4043 20.1692C22.3434 19.6267 22.8626 18.9325 22.8626 18.2034C22.8626 17.4742 22.3434 16.78 21.4043 16.2375L17.8051 14.1609C17.2334 13.8342 16.6968 13.665 16.2184 13.665Z" fill="#FDFDFD"/>
<defs>
<linearGradient id="paint0_linear_6658_9072" x1="18.2025" y1="0.118652" x2="14.5503" y2="46.7435" gradientUnits="userSpaceOnUse">
<stop stop-color="#777777" stop-opacity="0.4"/>
<stop offset="1" stop-color="#777777" stop-opacity="0.4"/>
</linearGradient>
</defs>
</svg>
