<svg width="77" height="42" viewBox="0 0 77 42" fill="none" xmlns="http://www.w3.org/2000/svg">
<path d="M3.98198 26.1324C3.24525 26.1324 2.61203 25.9817 2.08232 25.6803C1.55565 25.3759 1.14923 24.9528 0.863066 24.4109C0.579944 23.8659 0.438383 23.2342 0.438383 22.5158C0.438383 21.7943 0.579944 21.1626 0.863066 20.6207C1.14923 20.0757 1.55565 19.6526 2.08232 19.3512C2.61203 19.0468 3.24525 18.8945 3.98198 18.8945C4.71871 18.8945 5.3504 19.0468 5.87707 19.3512C6.40678 19.6526 6.8132 20.0757 7.09632 20.6207C7.38249 21.1626 7.52557 21.7943 7.52557 22.5158C7.52557 23.2342 7.38249 23.8659 7.09632 24.4109C6.8132 24.9528 6.40678 25.3759 5.87707 25.6803C5.3504 25.9817 4.71871 26.1324 3.98198 26.1324ZM3.99568 24.4474C4.26358 24.4474 4.49038 24.3652 4.67609 24.2008C4.86179 24.0364 5.00335 23.8081 5.10077 23.5158C5.20123 23.2236 5.25146 22.8857 5.25146 22.5021C5.25146 22.1124 5.20123 21.7714 5.10077 21.4792C5.00335 21.1869 4.86179 20.9586 4.67609 20.7942C4.49038 20.6298 4.26358 20.5476 3.99568 20.5476C3.71864 20.5476 3.48423 20.6298 3.29244 20.7942C3.10369 20.9586 2.95909 21.1869 2.85862 21.4792C2.7612 21.7714 2.71249 22.1124 2.71249 22.5021C2.71249 22.8857 2.7612 23.2236 2.85862 23.5158C2.95909 23.8081 3.10369 24.0364 3.29244 24.2008C3.48423 24.3652 3.71864 24.4474 3.99568 24.4474ZM8.66948 26V18.9859H10.9025V26H8.66948ZM9.78827 18.1685C9.4747 18.1685 9.20528 18.065 8.98 17.8579C8.75472 17.6479 8.64208 17.3952 8.64208 17.0999C8.64208 16.8077 8.75472 16.558 8.98 16.351C9.20528 16.1409 9.4747 16.0359 9.78827 16.0359C10.1049 16.0359 10.3743 16.1409 10.5965 16.351C10.8218 16.558 10.9345 16.8077 10.9345 17.0999C10.9345 17.3952 10.8218 17.6479 10.5965 17.8579C10.3743 18.065 10.1049 18.1685 9.78827 18.1685ZM14.5568 21.9998V26H12.3238V18.9859H14.4472V20.2736H14.5249C14.6801 19.8444 14.945 19.508 15.3194 19.2644C15.6939 19.0178 16.1399 18.8945 16.6574 18.8945C17.1506 18.8945 17.5783 19.0057 17.9406 19.2279C18.3059 19.4471 18.589 19.7546 18.79 20.1503C18.9939 20.543 19.0944 21.0027 19.0914 21.5294V26H16.8583V21.9678C16.8614 21.5781 16.7624 21.2737 16.5615 21.0545C16.3636 20.8353 16.0881 20.7257 15.735 20.7257C15.5006 20.7257 15.2936 20.7775 15.1139 20.881C14.9374 20.9814 14.8004 21.126 14.703 21.3148C14.6086 21.5035 14.5599 21.7319 14.5568 21.9998ZM26.5975 21.1276L24.5472 21.1824C24.5259 21.0362 24.468 20.9068 24.3736 20.7942C24.2793 20.6785 24.156 20.5887 24.0038 20.5248C23.8546 20.4578 23.6811 20.4243 23.4832 20.4243C23.2244 20.4243 23.0037 20.4761 22.821 20.5796C22.6414 20.6831 22.5531 20.8231 22.5562 20.9997C22.5531 21.1367 22.6079 21.2554 22.7206 21.3559C22.8363 21.4563 23.0417 21.537 23.337 21.5979L24.6887 21.8536C25.3889 21.9876 25.9095 22.2098 26.2505 22.5203C26.5945 22.8309 26.768 23.2418 26.771 23.7533C26.768 24.2343 26.6249 24.6529 26.3418 25.0091C26.0617 25.3653 25.6781 25.6423 25.191 25.8402C24.7039 26.035 24.1468 26.1324 23.5197 26.1324C22.5181 26.1324 21.7281 25.9269 21.1497 25.516C20.5743 25.1019 20.2455 24.5479 20.1633 23.8537L22.3689 23.799C22.4177 24.0547 22.544 24.2495 22.748 24.3835C22.9519 24.5174 23.2122 24.5844 23.5288 24.5844C23.815 24.5844 24.0479 24.5311 24.2275 24.4246C24.4071 24.318 24.4985 24.1764 24.5015 23.9999C24.4985 23.8416 24.4284 23.7152 24.2914 23.6209C24.1544 23.5234 23.9398 23.4473 23.6476 23.3925L22.4237 23.1596C21.7205 23.0318 21.1969 22.7958 20.8529 22.4518C20.5089 22.1048 20.3384 21.6634 20.3414 21.1276C20.3384 20.6587 20.4632 20.2584 20.7159 19.9266C20.9686 19.5917 21.3278 19.336 21.7936 19.1594C22.2594 18.9828 22.8089 18.8945 23.4421 18.8945C24.3919 18.8945 25.1408 19.0939 25.6888 19.4928C26.2368 19.8885 26.5397 20.4334 26.5975 21.1276Z" fill="white"/>
<path d="M41.9414 37.2467C43.8635 36.6434 43.197 29.0673 40.4528 20.3251C37.7086 11.5829 33.9258 4.98508 32.0037 5.58843C30.0816 6.19179 30.7481 13.7679 33.4923 22.5101C36.2365 31.2522 40.0193 37.8501 41.9414 37.2467Z" fill="white"/>
<path d="M32.2967 10.6291L32.3022 10.6279" stroke="#231F20" stroke-width="0.50687" stroke-miterlimit="10"/>
<path d="M35.1408 4.7362C35.1144 4.73973 35.0908 4.74509 35.0654 4.75335L35.0465 4.75763L32.0347 5.57619L32.0198 6.02331L31.9738 7.45673L31.9366 8.64521L32.7658 8.61784L33.9683 8.57502L35.0679 8.07962L35.0745 7.8575L35.1427 4.73331L35.1408 4.7362Z" fill="white"/>
<path d="M45.1059 35.7727L45.239 36.2927L44.6967 36.4482L41.9357 37.247L41.8239 36.8534L41.4477 35.5581L41.2338 34.8135L42.2881 34.435L43.0304 34.1671L45.1059 35.7727Z" fill="white"/>
<path d="M45.002 36.4118C46.9241 35.8084 46.2576 28.2323 43.5134 19.4901C40.7691 10.7479 36.9863 4.15012 35.0642 4.75347C33.1421 5.35683 33.8086 12.9329 36.5529 21.6751C39.2971 30.4173 43.0799 37.0151 45.002 36.4118Z" fill="white"/>
<path d="M31.3362 6.25472L31.338 6.25182L32.0208 6.02721L32.8972 5.73872L34.5231 5.203L34.525 5.20011" stroke="#231F20" stroke-width="0.380153" stroke-miterlimit="10"/>
<path d="M34.084 6.76883L34.0492 6.77922L31.9756 7.46133L30.9628 7.79322" stroke="#231F20" stroke-width="0.380153" stroke-miterlimit="10"/>
<path d="M34.9509 7.90015L35.0765 7.86163" stroke="#231F20" stroke-width="0.380153" stroke-miterlimit="10"/>
<path d="M33.9673 8.22671L32.7701 8.62033L32.7683 8.62322L30.9044 9.23535" stroke="#231F20" stroke-width="0.380153" stroke-miterlimit="10"/>
<path d="M30.9685 10.6332L34.0172 9.62774" stroke="#231F20" stroke-width="0.380153" stroke-miterlimit="10"/>
<path d="M31.1011 12.0089L34.1451 11.0046" stroke="#231F20" stroke-width="0.380153" stroke-miterlimit="10"/>
<path d="M31.2903 13.3642L34.3307 12.3657" stroke="#231F20" stroke-width="0.380153" stroke-miterlimit="10"/>
<path d="M31.5186 14.7076L34.5495 13.7111" stroke="#231F20" stroke-width="0.380153" stroke-miterlimit="10"/>
<path d="M31.7803 16.0408L34.8112 15.0444" stroke="#231F20" stroke-width="0.380153" stroke-miterlimit="10"/>
<path d="M32.0751 17.3612L35.0984 16.364" stroke="#231F20" stroke-width="0.380153" stroke-miterlimit="10"/>
<path d="M35.4197 17.6803L32.3982 18.6745L32.3953 18.6727" stroke="#231F20" stroke-width="0.380153" stroke-miterlimit="10"/>
<path d="M32.7447 19.9799L35.7615 18.9867" stroke="#231F20" stroke-width="0.380153" stroke-miterlimit="10"/>
<path d="M33.1158 21.2797L36.1326 20.2865" stroke="#231F20" stroke-width="0.380153" stroke-miterlimit="10"/>
<path d="M33.5063 22.5637L36.5213 21.5734" stroke="#231F20" stroke-width="0.380153" stroke-miterlimit="10"/>
<path d="M33.9242 23.8493L36.9344 22.8601" stroke="#231F20" stroke-width="0.380153" stroke-miterlimit="10"/>
<path d="M34.3617 25.1223L37.369 24.1312" stroke="#231F20" stroke-width="0.380153" stroke-miterlimit="10"/>
<path d="M34.8263 26.3882L37.83 25.403" stroke="#231F20" stroke-width="0.380153" stroke-miterlimit="10"/>
<path d="M35.3126 27.6482L38.3134 26.6612" stroke="#231F20" stroke-width="0.380153" stroke-miterlimit="10"/>
<path d="M35.83 28.8951L38.8232 27.9073" stroke="#231F20" stroke-width="0.380153" stroke-miterlimit="10"/>
<path d="M36.3729 30.1334L39.3642 29.1485" stroke="#231F20" stroke-width="0.380153" stroke-miterlimit="10"/>
<path d="M36.9529 31.3627L39.9443 30.3777" stroke="#231F20" stroke-width="0.380153" stroke-miterlimit="10"/>
<path d="M37.5739 32.5788L40.5606 31.5949" stroke="#231F20" stroke-width="0.380153" stroke-miterlimit="10"/>
<path d="M38.2475 33.7739L41.2276 32.794" stroke="#231F20" stroke-width="0.380153" stroke-miterlimit="10"/>
<path d="M38.9972 34.9493L41.965 33.9697" stroke="#231F20" stroke-width="0.380153" stroke-miterlimit="10"/>
<path d="M42.8157 35.1073L42.8139 35.1102L41.4484 35.5594L39.8639 36.0808" stroke="#231F20" stroke-width="0.380153" stroke-miterlimit="10"/>
<path d="M46.0545 34.0442L46.0566 34.0408" stroke="#231F20" stroke-width="0.380153" stroke-miterlimit="10"/>
<path d="M41.0549 37.1085L41.825 36.8541L42.5952 36.5997L43.9305 36.1598" stroke="#231F20" stroke-width="0.380153" stroke-miterlimit="10"/>
<path d="M52.9859 26.1324C52.2492 26.1324 51.6159 25.9817 51.0862 25.6803C50.5596 25.3759 50.1531 24.9528 49.867 24.4109C49.5839 23.8659 49.4423 23.2342 49.4423 22.5158C49.4423 21.7943 49.5839 21.1626 49.867 20.6207C50.1531 20.0757 50.5596 19.6526 51.0862 19.3512C51.6159 19.0468 52.2492 18.8945 52.9859 18.8945C53.7226 18.8945 54.3543 19.0468 54.881 19.3512C55.4107 19.6526 55.8171 20.0757 56.1002 20.6207C56.3864 21.1626 56.5295 21.7943 56.5295 22.5158C56.5295 23.2342 56.3864 23.8659 56.1002 24.4109C55.8171 24.9528 55.4107 25.3759 54.881 25.6803C54.3543 25.9817 53.7226 26.1324 52.9859 26.1324ZM52.9996 24.4474C53.2675 24.4474 53.4943 24.3652 53.68 24.2008C53.8657 24.0364 54.0073 23.8081 54.1047 23.5158C54.2051 23.2236 54.2554 22.8857 54.2554 22.5021C54.2554 22.1124 54.2051 21.7714 54.1047 21.4792C54.0073 21.1869 53.8657 20.9586 53.68 20.7942C53.4943 20.6298 53.2675 20.5476 52.9996 20.5476C52.7226 20.5476 52.4881 20.6298 52.2963 20.7942C52.1076 20.9586 51.963 21.1869 51.8625 21.4792C51.7651 21.7714 51.7164 22.1124 51.7164 22.5021C51.7164 22.8857 51.7651 23.2236 51.8625 23.5158C51.963 23.8081 52.1076 24.0364 52.2963 24.2008C52.4881 24.3652 52.7226 24.4474 52.9996 24.4474ZM57.6734 26V18.9859H59.9064V26H57.6734ZM58.7922 18.1685C58.4786 18.1685 58.2092 18.065 57.9839 17.8579C57.7586 17.6479 57.646 17.3952 57.646 17.0999C57.646 16.8077 57.7586 16.558 57.9839 16.351C58.2092 16.1409 58.4786 16.0359 58.7922 16.0359C59.1088 16.0359 59.3782 16.1409 59.6004 16.351C59.8257 16.558 59.9384 16.8077 59.9384 17.0999C59.9384 17.3952 59.8257 17.6479 59.6004 17.8579C59.3782 18.065 59.1088 18.1685 58.7922 18.1685ZM63.5607 21.9998V26H61.3277V18.9859H63.4511V20.2736H63.5288C63.684 19.8444 63.9489 19.508 64.3233 19.2644C64.6978 19.0178 65.1438 18.8945 65.6613 18.8945C66.1545 18.8945 66.5822 19.0057 66.9445 19.2279C67.3098 19.4471 67.5929 19.7546 67.7939 20.1503C67.9978 20.543 68.0983 21.0027 68.0953 21.5294V26H65.8622V21.9678C65.8653 21.5781 65.7663 21.2737 65.5654 21.0545C65.3675 20.8353 65.092 20.7257 64.7389 20.7257C64.5045 20.7257 64.2975 20.7775 64.1178 20.881C63.9413 20.9814 63.8043 21.126 63.7069 21.3148C63.6125 21.5035 63.5638 21.7319 63.5607 21.9998ZM75.6014 21.1276L73.5511 21.1824C73.5298 21.0362 73.4719 20.9068 73.3775 20.7942C73.2832 20.6785 73.1599 20.5887 73.0077 20.5248C72.8585 20.4578 72.685 20.4243 72.4871 20.4243C72.2283 20.4243 72.0076 20.4761 71.8249 20.5796C71.6453 20.6831 71.557 20.8231 71.5601 20.9997C71.557 21.1367 71.6118 21.2554 71.7245 21.3559C71.8402 21.4563 72.0456 21.537 72.3409 21.5979L73.6926 21.8536C74.3928 21.9876 74.9134 22.2098 75.2544 22.5203C75.5984 22.8309 75.7719 23.2418 75.7749 23.7533C75.7719 24.2343 75.6288 24.6529 75.3457 25.0091C75.0656 25.3653 74.682 25.6423 74.1949 25.8402C73.7079 26.035 73.1507 26.1324 72.5236 26.1324C71.522 26.1324 70.732 25.9269 70.1536 25.516C69.5782 25.1019 69.2494 24.5479 69.1672 23.8537L71.3729 23.799C71.4216 24.0547 71.5479 24.2495 71.7519 24.3835C71.9558 24.5174 72.2161 24.5844 72.5327 24.5844C72.8189 24.5844 73.0518 24.5311 73.2314 24.4246C73.411 24.318 73.5024 24.1764 73.5054 23.9999C73.5024 23.8416 73.4323 23.7152 73.2953 23.6209C73.1584 23.5234 72.9437 23.4473 72.6515 23.3925L71.4277 23.1596C70.7244 23.0318 70.2008 22.7958 69.8568 22.4518C69.5128 22.1048 69.3423 21.6634 69.3453 21.1276C69.3423 20.6587 69.4671 20.2584 69.7198 19.9266C69.9725 19.5917 70.3317 19.336 70.7975 19.1594C71.2633 18.9828 71.8128 18.8945 72.446 18.8945C73.3958 18.8945 74.1447 19.0939 74.6927 19.4928C75.2407 19.8885 75.5436 20.4334 75.6014 21.1276Z" fill="white"/>
</svg>
